<svg xmlns="http://www.w3.org/2000/svg" width="51" height="50" viewBox="0 0 51 50" fill="none">
<path d="M23.8016 0.0440979C23.1256 0.0808868 21.6771 0.255627 20.9229 0.388981C16.7751 1.13393 12.9446 2.81236 9.66593 5.32771C7.78057 6.77163 6.02396 8.55582 4.70881 10.3538C2.16587 13.8348 0.62079 17.6607 0.0689767 21.8361C0.0137953 22.2546 0 22.9168 0 25.0504C0 26.5265 0.0183938 27.8647 0.0459845 28.0164C0.0689767 28.1728 0.11956 28.5361 0.160946 28.8258C0.312694 29.8788 0.717358 31.5756 1.06224 32.6149C2.00492 35.4567 3.45343 38.133 5.26062 40.3909C6.34586 41.7428 7.25635 42.6763 8.81062 44.0282C9.11872 44.2949 10.4753 45.3204 10.8523 45.5687C13.57 47.3759 16.2969 48.5715 19.4514 49.3348C20.4815 49.5878 21.5989 49.7625 23.2681 49.9418C24.1051 50.0292 26.8917 50.0154 27.8206 49.9188C29.729 49.7119 30.7728 49.5234 32.3225 49.1003C38.6315 47.3667 44.0991 43.2787 47.4008 37.8157C49.7782 33.8841 50.9968 29.5339 50.9968 24.9907C50.9968 19.7162 49.2907 14.5936 46.1086 10.294C44.8854 8.64779 42.8437 6.5509 41.4872 5.54844C41.3446 5.44267 41.1009 5.25414 40.9492 5.12998C40.5905 4.84488 39.0638 3.82862 38.6499 3.60329C38.4752 3.50673 38.2453 3.37337 38.1441 3.31359C37.8314 3.11586 36.199 2.31573 35.5506 2.03982C34.7826 1.71333 33.3295 1.2075 32.4604 0.968384C29.6278 0.177452 26.8411 -0.121445 23.8016 0.0440979ZM15.9106 2.98251C15.9106 3.01009 15.8646 3.04688 15.8095 3.06987C15.7497 3.09287 15.6255 3.16644 15.529 3.23082C15.4324 3.2952 15.3496 3.35038 15.3404 3.35038C15.2806 3.35038 14.2 3.99876 13.6114 4.38503C9.7487 6.91877 6.67234 10.0365 4.4283 13.6969C4.04203 14.3315 3.2695 15.8214 2.79586 16.8468C2.45097 17.601 2.64411 16.6859 3.07176 15.5593C3.97766 13.1727 5.01231 11.3471 6.67234 9.23639C7.36671 8.34889 8.5899 7.1349 9.61075 6.31638C11.3122 4.95984 13.1516 3.92978 15.5198 3.01009C15.7359 2.92732 15.9106 2.91813 15.9106 2.98251ZM16.6004 4.56897C16.5682 4.60575 16.4256 4.70232 16.2831 4.7851C13.2159 6.51871 10.5534 8.72596 8.35997 11.3563C6.87008 13.1405 5.60551 15.1776 4.80538 17.0767C4.70881 17.3021 4.58925 17.532 4.54326 17.5826C4.4513 17.6745 4.4513 17.6745 4.48348 17.4676C4.54786 17.0721 5.04909 15.6926 5.42617 14.8695C5.72966 14.2073 6.01017 13.6325 6.16192 13.375C6.25848 13.2094 6.37804 13.0025 6.42863 12.9151C7.94611 10.2481 10.1764 7.90284 12.7009 6.33937C13.6896 5.71858 14.9587 5.09319 16.0946 4.65634C16.536 4.48619 16.6924 4.45861 16.6004 4.56897ZM17.5661 6.16463C17.5661 6.19682 17.4695 6.2658 17.3453 6.31178C16.3843 6.69805 15.6669 7.08432 14.6001 7.79248C12.6825 9.06625 10.8523 10.855 9.21069 13.0531C8.2864 14.2901 7.34372 15.8444 6.57118 17.3986C6.26768 18.0056 5.99637 18.5207 5.96878 18.5482C5.89061 18.6218 5.96418 18.1666 6.09294 17.7803C6.88847 15.3523 7.95071 13.2646 9.23828 11.5816C11.257 8.94669 13.7218 7.20848 16.7383 6.28879C17.3453 6.10485 17.5661 6.07266 17.5661 6.16463ZM17.819 7.92583C17.7454 7.98561 17.6672 8.0362 17.6488 8.04079C17.635 8.04079 17.4373 8.14656 17.212 8.27531C16.9913 8.40407 16.7337 8.55122 16.6464 8.60181C16.1451 8.88231 14.9771 9.69624 14.3517 10.1929C12.2089 11.8943 10.3327 14.0969 9.02675 16.433C8.68187 17.0537 8.15764 18.1712 7.9967 18.631C7.96451 18.7276 7.89553 18.8379 7.84495 18.8839C7.76218 18.9621 7.75758 18.9575 7.78977 18.7322C7.90473 17.9183 8.39216 16.4697 8.97157 15.219C9.67973 13.7061 11.1282 11.8391 12.4342 10.7677C12.5813 10.6481 12.8113 10.455 12.94 10.3492C13.147 10.1699 13.616 9.85258 14.4575 9.30537C15.2622 8.78574 17.4327 7.82927 17.842 7.81547L17.9569 7.81087L17.819 7.92583ZM18.9916 9.2272C18.9916 9.30077 18.8352 9.40194 18.4398 9.58128C17.2948 10.1055 15.6485 11.2137 14.5771 12.1748C12.2549 14.2579 10.6638 16.6215 9.70732 19.4082C9.60615 19.7071 9.49579 19.9968 9.4682 20.0519L9.41302 20.1577L9.37623 20.0289C9.33484 19.8818 9.459 19.1185 9.64294 18.3873C10.0706 16.6583 10.9719 14.8879 12.0985 13.5773C13.7448 11.6552 15.7267 10.3446 18.5777 9.29157C18.8536 9.19041 18.9916 9.16742 18.9916 9.2272ZM19.3135 11.0022C19.3135 11.0344 18.8214 11.3379 18.4858 11.5126C17.5753 11.9817 16.2647 12.9565 15.2668 13.9038C13.6666 15.4259 12.402 17.2607 11.5927 19.238C11.4363 19.6151 11.28 19.9554 11.2432 19.9922C10.9673 20.2681 11.5053 18.3091 12.0249 17.1227C13.032 14.8511 14.5449 13.1681 16.6418 12.0001C17.1154 11.7333 18.0627 11.3287 18.6237 11.1447C18.7617 11.0988 18.918 11.0482 18.9686 11.0252C19.0606 10.9884 19.3135 10.97 19.3135 11.0022ZM20.3021 12.4553C20.3021 12.4921 20.1826 12.6025 20.04 12.699C19.7917 12.8646 18.6927 13.4348 18.2558 13.6279C17.4465 13.982 16.3061 15.0488 15.3772 16.318C15.0783 16.7273 14.4437 17.7251 14.1172 18.2953C13.9103 18.6678 13.2435 20.0014 13.0412 20.4658C12.9446 20.6911 12.8435 20.8705 12.8251 20.8705C12.7147 20.8705 12.8389 19.9554 13.055 19.192C13.547 17.4492 14.6369 15.8214 16.1451 14.589C16.7475 14.0969 16.9453 13.9544 17.612 13.5589C18.2282 13.1957 18.9594 12.8416 19.5894 12.5979C19.8055 12.5151 20.0216 12.4277 20.0722 12.4093C20.201 12.3541 20.3021 12.3725 20.3021 12.4553ZM20.7298 14.1613C20.7206 14.1889 20.5045 14.3269 20.2562 14.4648C19.2399 15.0258 18.3386 15.6972 17.5155 16.5065C16.0624 17.9321 15.1749 19.4265 14.669 21.2751C14.6001 21.5372 14.5265 21.7626 14.5081 21.781C14.3747 21.9189 14.3747 20.921 14.5127 20.2359C14.7012 19.3116 14.9587 18.5758 15.3174 17.9504C16.2877 16.2536 17.7454 15.127 20.0492 14.2901C20.5413 14.1107 20.762 14.0694 20.7298 14.1613ZM21.2908 15.7984C21.2908 15.8214 21.0885 15.9501 20.8402 16.0881C20.3021 16.387 19.8975 16.6583 19.4974 16.9848C19.0698 17.3389 18.2236 18.2126 17.9017 18.6402C17.6258 19.0081 17.1476 19.7806 17.0051 20.0887C16.8211 20.4842 16.5084 21.2935 16.3981 21.6614C16.2693 22.0753 16.1773 22.2224 16.1222 22.0844C16.0716 21.9557 16.0946 21.3763 16.1681 20.8751C16.4854 18.7092 17.9937 17.04 20.624 15.9455C21.0149 15.7846 21.2908 15.7248 21.2908 15.7984ZM26.3951 16.272C28.3448 16.5525 29.9451 17.3664 31.297 18.7598C32.3593 19.8588 33.0444 21.1188 33.3847 22.5949C33.794 24.3929 33.5687 26.2828 32.7547 27.9291C31.6373 30.1685 29.6186 31.7642 27.1538 32.3436C25.9076 32.6333 24.7304 32.6517 23.4981 32.3942C22.6106 32.2056 21.5943 31.8194 20.8999 31.4009C19.1709 30.3571 17.888 28.7844 17.2488 26.9266C16.9177 25.9609 16.7751 24.7745 16.8717 23.7353C16.9545 22.8156 17.0464 22.3925 17.3223 21.6292C17.9523 19.9048 19.1801 18.4103 20.739 17.4538C21.93 16.7319 22.8819 16.41 24.4407 16.2122C24.85 16.1571 25.8249 16.1892 26.3951 16.272ZM34.217 28.4395C33.9871 29.4512 33.4353 30.7157 32.8973 31.4515C32.7777 31.6124 32.511 31.9205 32.3087 32.1275C31.4948 32.969 30.5935 33.4656 29.4255 33.7231C28.5885 33.9071 28.2023 33.8565 28.7265 33.6265C29.3795 33.3368 30.0416 32.9874 30.5015 32.6839C32.0604 31.6446 33.2836 30.1823 33.9549 28.5499C34.1756 28.021 34.217 27.9383 34.263 27.9843C34.2906 28.0118 34.2722 28.182 34.217 28.4395ZM36.038 28.3843C36.0242 28.4165 36.0012 28.5453 35.9828 28.6694C35.8909 29.3362 35.523 30.4766 35.1183 31.3687C34.8838 31.8745 34.4286 32.5459 33.9641 33.0655C33.072 34.0634 31.9224 34.7808 30.5475 35.19C29.9773 35.3602 29.2139 35.5073 29.1312 35.4567C29.0254 35.4015 29.1082 35.3418 29.5772 35.1532C31.1775 34.5094 32.58 33.4794 33.725 32.1137C34.6493 31.0146 35.2701 29.9432 35.8725 28.4211C35.8955 28.3659 35.946 28.3199 35.9874 28.3199C36.0334 28.3199 36.0518 28.3475 36.038 28.3843ZM37.8452 28.5821C37.8452 28.8672 37.4681 30.0949 37.1233 30.9411C36.0012 33.7093 33.9641 35.7188 31.3614 36.6339C30.0508 37.0938 29.8347 37.0616 30.7268 36.5374C31.7385 35.9442 32.9479 35.1026 33.7756 34.4221C34.2722 34.0174 35.2425 33.0747 35.5782 32.6839C36.2449 31.8929 36.6818 31.148 36.9347 30.3525C37.2796 29.2718 37.6199 28.5039 37.7578 28.5039C37.8084 28.5039 37.8452 28.5361 37.8452 28.5821ZM39.3811 29.5385C39.3673 29.6121 39.3397 29.7593 39.3167 29.8604C39.2937 29.9616 39.2431 30.2007 39.2018 30.3892C39.0086 31.2446 38.7695 31.9067 38.3234 32.7988C37.3808 34.6888 35.9369 36.1327 33.7296 37.3835C33.3479 37.5996 32.1293 38.1422 31.7523 38.2618C31.4718 38.3537 31.3154 38.3813 31.2924 38.3446C31.2602 38.2894 31.343 38.2342 32.0236 37.8617C32.6444 37.5214 32.8513 37.3927 33.4997 36.9374C34.4286 36.2936 35.7805 35.0291 36.5622 34.091C36.9899 33.5714 37.6613 32.6149 37.997 32.0447C38.3234 31.4837 38.8569 30.4122 39.0132 29.9984C39.2293 29.4328 39.3213 29.2626 39.3627 29.3316C39.3857 29.3684 39.3903 29.4604 39.3811 29.5385ZM41.2481 29.419C41.2481 29.5017 41.0181 30.4766 40.9078 30.8491C40.0479 33.8059 38.4292 36.2661 36.2587 37.9077C35.1735 38.7262 33.7572 39.4758 32.626 39.8299C32.065 40.0046 31.5729 40.1379 31.4856 40.1379C31.3936 40.1379 31.3936 40.1333 31.4994 40.023C31.5591 39.9586 31.6281 39.908 31.6511 39.908C31.7523 39.908 32.8927 39.3286 33.4675 38.9837C34.0239 38.648 34.3274 38.4457 35.2379 37.7789C35.5874 37.526 36.4105 36.7811 36.9623 36.2293C38.7833 34.3991 40.2778 31.9343 41.0871 29.4328C41.1101 29.3684 41.2481 29.3546 41.2481 29.419ZM42.7426 30.5364C42.623 31.4653 41.9884 33.2679 41.3538 34.4819C39.6708 37.7238 36.9255 40.0828 33.3019 41.4071C33.0628 41.4945 32.8513 41.5543 32.8283 41.5359C32.7639 41.4991 32.9295 41.3795 33.4767 41.0806C35.5598 39.9264 37.7211 38.0824 39.3351 36.0775C40.5399 34.583 41.6205 32.7942 42.2735 31.217C42.5678 30.5088 42.6736 30.2973 42.7242 30.2973C42.7563 30.2973 42.7655 30.3754 42.7426 30.5364ZM44.5359 30.6743C44.5084 30.9778 44.467 31.1848 44.283 32.0447C43.8508 34.0496 42.6276 36.381 41.1331 38.0457C40.9262 38.271 40.7008 38.5285 40.6227 38.6159C40.4893 38.7722 39.6018 39.5861 39.1926 39.9356C38.6453 40.4047 36.829 41.7014 36.7278 41.7014C36.7094 41.7014 36.5071 41.8164 36.2725 41.9589C36.038 42.1015 35.3896 42.4372 34.8332 42.7085C33.8722 43.1775 33.4583 43.3523 33.4077 43.3063C33.3801 43.2741 33.7572 42.9982 34.1802 42.7407C34.9298 42.29 36.3139 41.3014 37.1784 40.6024C40.7008 37.7514 43.3633 34.091 44.283 30.8261C44.3382 30.6238 44.3934 30.4306 44.4026 30.3984C44.4118 30.3708 44.4532 30.3433 44.4946 30.3433C44.5589 30.3433 44.5635 30.3846 44.5359 30.6743ZM46.3063 31.1296C46.3063 31.2767 46.0212 32.3022 45.7821 33.0104C45.3269 34.3669 44.8854 35.3326 44.1497 36.5604C43.3495 37.8985 42.4529 39.0205 41.2205 40.2345C40.2502 41.1818 39.5466 41.7612 38.4844 42.4878C37.2336 43.3477 34.9712 44.5525 34.6079 44.5525C34.5343 44.5525 34.5343 44.5433 34.6309 44.4697C34.6907 44.4237 34.9804 44.2444 35.2701 44.0696C37.2014 42.9292 38.7465 41.6922 40.4893 39.9034C41.5562 38.8044 42.5356 37.572 43.5197 36.0913C44.5176 34.5968 45.1889 33.3782 45.8051 31.9573C46.1638 31.125 46.2098 31.033 46.2604 31.033C46.2834 31.033 46.3063 31.0744 46.3063 31.1296ZM47.9848 31.686C47.8928 32.2746 47.318 34.1508 46.9501 35.0567C46.3247 36.5971 45.2165 38.4779 44.1727 39.7701C42.0068 42.451 39.2569 44.5617 35.946 46.0883C35.6058 46.2447 35.3253 46.3045 35.3804 46.2125C35.3942 46.1895 35.5782 46.0699 35.7897 45.9504C37.1003 45.1916 38.4384 44.249 39.6386 43.2235C40.3973 42.5797 41.8321 41.1496 42.5264 40.3541C44.5267 38.0411 46.3937 35.0843 47.4514 32.5505C47.8284 31.6492 47.9066 31.4975 47.9986 31.4929C48.0078 31.4929 48.0032 31.5802 47.9848 31.686Z" fill="black"/>
<path d="M24.8546 23.3031C24.1694 23.6158 24.0269 24.4941 24.5833 24.9539C24.6845 25.0367 24.873 25.1379 25.0063 25.1792C25.2133 25.2436 25.2823 25.2482 25.4662 25.2022C25.7973 25.1149 26.0318 24.9309 26.179 24.6458C26.3261 24.3515 26.3399 24.0986 26.2157 23.8365C25.9766 23.3123 25.3604 23.0686 24.8546 23.3031Z" fill="black"/>
</svg>