<svg xmlns="http://www.w3.org/2000/svg" width="76" height="75" viewBox="0 0 76 75" fill="none">
<path d="M38.194 18.2709C27.5761 18.2709 19.0118 26.8562 19.0118 37.5C19.0118 48.1438 27.5761 56.729 38.194 56.729C48.8118 56.729 57.3762 48.1438 57.3762 37.5C57.3762 26.8562 48.8118 18.2709 38.194 18.2709ZM38.194 50.0014C31.3325 50.0014 25.723 44.395 25.723 37.5C25.723 30.605 31.3158 24.9986 38.194 24.9986C45.0722 24.9986 50.6649 30.605 50.6649 37.5C50.6649 44.395 45.0555 50.0014 38.194 50.0014ZM62.635 17.4844C62.635 19.978 60.6317 21.9695 58.1609 21.9695C55.6733 21.9695 53.6867 19.9612 53.6867 17.4844C53.6867 15.0075 55.69 12.9993 58.1609 12.9993C60.6317 12.9993 62.635 15.0075 62.635 17.4844ZM75.3397 22.0364C75.0559 16.0284 73.6869 10.7065 69.2962 6.32182C64.9222 1.93713 59.6133 0.564822 53.6199 0.263584C47.4429 -0.0878612 28.9284 -0.0878612 22.7514 0.263584C16.7747 0.548087 11.4658 1.92039 7.07504 6.30509C2.68433 10.6898 1.33206 16.0117 1.03156 22.0197C0.680969 28.2118 0.680969 46.7714 1.03156 52.9636C1.31537 58.9716 2.68433 64.2935 7.07504 68.6782C11.4658 73.0629 16.758 74.4352 22.7514 74.7364C28.9284 75.0879 47.4429 75.0879 53.6199 74.7364C59.6133 74.4519 64.9222 73.0796 69.2962 68.6782C73.6702 64.2935 75.0392 58.9716 75.3397 52.9636C75.6903 46.7714 75.6903 28.2286 75.3397 22.0364ZM67.3596 59.6076C66.0574 62.8877 63.5366 65.4148 60.2477 66.7369C55.3228 68.6949 43.6365 68.2431 38.194 68.2431C32.7515 68.2431 21.0485 68.6782 16.1403 66.7369C12.8681 65.4315 10.3472 62.9044 9.02832 59.6076C7.07504 54.6706 7.5258 42.9558 7.5258 37.5C7.5258 32.0442 7.09174 20.3127 9.02832 15.3924C10.3305 12.1123 12.8514 9.58524 16.1403 8.26314C21.0652 6.30509 32.7515 6.75694 38.194 6.75694C43.6365 6.75694 55.3395 6.32182 60.2477 8.26314C63.5199 9.5685 66.0408 12.0956 67.3596 15.3924C69.3129 20.3294 68.8622 32.0442 68.8622 37.5C68.8622 42.9558 69.3129 54.6873 67.3596 59.6076Z" fill="white"/>
</svg>