<svg width="100" height="99" viewBox="0 0 100 99" fill="none" xmlns="http://www.w3.org/2000/svg">
<path d="M46.6727 0.177391C45.3472 0.249527 42.5068 0.592178 41.028 0.853676C32.8945 2.31445 25.3832 5.60571 18.954 10.5381C15.257 13.3695 11.8124 16.8681 9.23354 20.3938C4.24707 27.2198 1.21731 34.722 0.135257 42.9096C0.0270514 43.7301 0 45.0286 0 49.2126C0 52.1071 0.0360685 54.731 0.0901713 55.0286C0.135257 55.3352 0.234445 56.0475 0.3156 56.6156C0.613165 58.6805 1.40667 62.0079 2.08296 64.0457C3.93147 69.6183 6.77187 74.8663 10.3156 79.2937C12.4436 81.9447 14.229 83.7752 17.2768 86.4263C17.881 86.9493 20.541 88.9601 21.2804 89.447C26.6096 92.9907 31.9567 95.3352 38.1425 96.832C40.1623 97.328 42.3535 97.6706 45.6267 98.0223C47.2678 98.1936 52.7322 98.1666 54.5536 97.9772C58.2958 97.5714 60.3426 97.2017 63.3814 96.3722C75.7529 92.9727 86.4743 84.9565 92.9486 74.2441C97.6105 66.5345 100 58.0043 100 49.0953C100 38.7527 96.6546 28.7076 90.4148 20.2766C88.0162 17.0484 84.0126 12.9366 81.3526 10.9709C81.073 10.7635 80.5951 10.3938 80.2976 10.1503C79.5942 9.59128 76.6005 7.59849 75.789 7.15665C75.4463 6.96729 74.9955 6.7058 74.7971 6.58857C74.1839 6.20084 70.9829 4.63185 69.7114 4.09083C68.2056 3.45061 65.3562 2.45872 63.6519 1.98983C58.0974 0.438889 52.633 -0.147224 46.6727 0.177391ZM31.1993 5.93934C31.1993 5.99344 31.1091 6.06557 31.0009 6.11066C30.8837 6.15575 30.6402 6.30003 30.4509 6.42626C30.2615 6.55251 30.0992 6.66071 30.0812 6.66071C29.9639 6.66071 27.8449 7.93212 26.6907 8.68956C19.1163 13.658 13.0839 19.7716 8.6835 26.9493C7.92606 28.1936 6.41118 31.1152 5.48242 33.126C4.80613 34.6048 5.18485 32.8104 6.02344 30.6012C7.79982 25.9213 9.82867 22.3415 13.0839 18.2026C14.4454 16.4623 16.844 14.0818 18.8458 12.4768C22.1821 9.8167 25.789 7.79687 30.4328 5.99344C30.8566 5.83113 31.1993 5.8131 31.1993 5.93934ZM32.5518 9.05025C32.4887 9.12238 32.2092 9.31174 31.9297 9.47405C25.9152 12.8735 20.6943 17.2017 16.3931 22.3595C13.4716 25.8582 10.9919 29.8528 9.4229 33.5769C9.23354 34.0187 8.9991 34.4695 8.90893 34.5687C8.72858 34.7491 8.72858 34.7491 8.7917 34.3433C8.91794 33.5678 9.90081 30.8627 10.6402 29.2486C11.2353 27.9502 11.7854 26.823 12.083 26.3181C12.2723 25.9934 12.5068 25.5877 12.606 25.4163C15.5816 20.1864 19.9549 15.5877 24.9053 12.5218C26.844 11.3045 29.3327 10.0782 31.56 9.22157C32.4256 8.88794 32.7322 8.83384 32.5518 9.05025ZM34.4454 12.1792C34.4454 12.2423 34.2561 12.3776 34.0126 12.4677C32.128 13.2252 30.7214 13.9826 28.6294 15.3713C24.8693 17.869 21.2804 21.3767 18.0613 25.6869C16.2489 28.1125 14.4004 31.1603 12.8855 34.208C12.2904 35.3983 11.7583 36.4082 11.7042 36.4623C11.5509 36.6066 11.6952 35.7139 11.9477 34.9565C13.5077 30.1954 15.5906 26.1016 18.1154 22.8014C22.0739 17.6346 26.9071 14.2261 32.8224 12.4227C34.0126 12.062 34.4454 11.9988 34.4454 12.1792ZM34.9414 15.6328C34.7971 15.75 34.6438 15.8492 34.6078 15.8582C34.5807 15.8582 34.193 16.0656 33.7511 16.3181C33.3183 16.5705 32.8133 16.8591 32.642 16.9583C31.6592 17.5083 29.3688 19.1043 28.1425 20.0782C23.9405 23.4145 20.2615 27.7337 17.7006 32.3144C17.0243 33.5318 15.9964 35.7229 15.6808 36.6246C15.6177 36.814 15.4824 37.0304 15.3832 37.1206C15.2209 37.2739 15.2119 37.2649 15.275 36.823C15.5005 35.227 16.4563 32.3866 17.5924 29.9339C18.9811 26.9673 21.8215 23.3063 24.3823 21.2053C24.6709 20.9709 25.1217 20.5922 25.3742 20.3848C25.78 20.0331 26.6997 19.4109 28.3499 18.3379C29.9279 17.319 34.1839 15.4434 34.9865 15.4163L35.2119 15.4073L34.9414 15.6328ZM37.2408 18.1846C37.2408 18.3289 36.9342 18.5273 36.1587 18.8789C33.9134 19.9069 30.6853 22.08 28.5843 23.9646C24.0307 28.0493 20.9107 32.6842 19.0352 38.1485C18.8368 38.7346 18.6204 39.3027 18.5663 39.4109L18.4581 39.6183L18.3859 39.3658C18.3048 39.0773 18.5482 37.5805 18.9089 36.1467C19.7475 32.7563 21.5149 29.2847 23.7241 26.7148C26.9522 22.9456 30.8386 20.3758 36.4292 18.3108C36.9702 18.1125 37.2408 18.0674 37.2408 18.1846ZM37.872 21.6652C37.872 21.7283 36.9071 22.3235 36.2489 22.6661C34.4635 23.5859 31.8936 25.4975 29.9369 27.355C26.7989 30.3397 24.3192 33.9375 22.7322 37.8149C22.4256 38.5543 22.119 39.2216 22.0469 39.2937C21.5059 39.8347 22.5609 35.9934 23.5798 33.667C25.5546 29.2126 28.5212 25.9123 32.633 23.6219C33.5618 23.0989 35.4193 22.3054 36.5194 21.9447C36.7899 21.8546 37.0965 21.7554 37.1957 21.7103C37.376 21.6382 37.872 21.6021 37.872 21.6652ZM39.8106 24.5146C39.8106 24.5868 39.5762 24.8032 39.2967 24.9925C38.8097 25.3172 36.6546 26.4353 35.798 26.814C34.211 27.5083 31.9748 29.6003 30.1533 32.089C29.5672 32.8915 28.3228 34.8483 27.6826 35.9664C27.2768 36.6968 25.9693 39.3117 25.5726 40.2225C25.3832 40.6643 25.1849 41.016 25.1488 41.016C24.9324 41.016 25.1758 39.2216 25.5996 37.7247C26.5645 34.3072 28.7015 31.1152 31.6592 28.6986C32.8404 27.7337 33.2281 27.4542 34.5356 26.6787C35.7439 25.9664 37.1776 25.2721 38.413 24.7942C38.8368 24.6319 39.2606 24.4605 39.3598 24.4245C39.6123 24.3163 39.8106 24.3523 39.8106 24.5146ZM40.6492 27.86C40.6312 27.9141 40.2074 28.1846 39.7205 28.4551C37.7277 29.5552 35.9603 30.8717 34.3463 32.4587C31.4968 35.254 29.7565 38.1846 28.7647 41.8095C28.6294 42.3235 28.4851 42.7653 28.4491 42.8014C28.1876 43.0719 28.1876 41.1152 28.4581 39.7716C28.8278 37.9592 29.3327 36.5164 30.0361 35.2901C31.9387 31.9628 34.7971 29.7536 39.3147 28.1125C40.2795 27.7608 40.7124 27.6796 40.6492 27.86ZM41.7493 31.0701C41.7493 31.1152 41.3526 31.3677 40.8656 31.6382C39.8106 32.2243 39.0171 32.7563 38.2326 33.3965C37.394 34.0908 35.7349 35.8041 35.1037 36.6427C34.5627 37.364 33.6249 38.8789 33.3454 39.4831C32.9847 40.2585 32.3715 41.8456 32.1551 42.5669C31.9026 43.3785 31.7223 43.667 31.6141 43.3965C31.5149 43.144 31.56 42.0079 31.7042 41.025C32.3264 36.7779 35.284 33.5047 40.4418 31.3586C41.2083 31.043 41.7493 30.9258 41.7493 31.0701ZM51.7583 31.9988C55.5816 32.5489 58.7196 34.1449 61.3706 36.8771C63.4536 39.0322 64.7971 41.5029 65.4644 44.3974C66.2669 47.9231 65.8251 51.6291 64.229 54.8573C62.0379 59.2486 58.0793 62.3776 53.2462 63.5137C50.8025 64.0818 48.4941 64.1179 46.0775 63.6129C44.3372 63.2432 42.3445 62.4858 40.9829 61.6652C37.5924 59.6183 35.0766 56.5345 33.8233 52.8915C33.174 50.9979 32.8945 48.6715 33.0839 46.6337C33.2462 44.8302 33.4265 44.0007 33.9675 42.5038C35.2029 39.1224 37.6105 36.1918 40.6673 34.3163C43.0027 32.9006 44.8693 32.2694 47.9261 31.8816C48.7286 31.7734 50.6402 31.8365 51.7583 31.9988ZM67.0965 55.8582C66.6456 57.8419 65.5636 60.3217 64.5086 61.7644C64.2741 62.08 63.7511 62.6842 63.3544 63.0899C61.7583 64.7401 59.991 65.7139 57.7006 66.2189C56.0595 66.5796 55.3021 66.4804 56.33 66.0295C57.6105 65.4614 58.9089 64.7761 59.8106 64.181C62.8674 62.1431 65.266 59.2757 66.5825 56.0746C67.0153 55.0376 67.0965 54.8753 67.1867 54.9655C67.2408 55.0196 67.2047 55.3532 67.0965 55.8582ZM70.6673 55.75C70.6402 55.8131 70.5951 56.0656 70.5591 56.309C70.3787 57.6165 69.6573 59.8528 68.8638 61.6021C68.404 62.594 67.5113 63.9105 66.6005 64.9294C64.8512 66.8861 62.5969 68.2928 59.9008 69.0953C58.7827 69.429 57.2858 69.7175 57.1235 69.6183C56.9161 69.5101 57.0784 69.3929 57.9982 69.0232C61.1362 67.7608 63.8864 65.741 66.1316 63.0629C67.9441 60.9078 69.1614 58.8068 70.3427 55.8221C70.3877 55.7139 70.4869 55.6237 70.5681 55.6237C70.6582 55.6237 70.6943 55.6778 70.6673 55.75ZM74.211 56.1377C74.211 56.6968 73.4716 59.1043 72.7953 60.7635C70.5951 66.1918 66.6005 70.1323 61.4968 71.9267C58.927 72.8284 58.5032 72.7653 60.2525 71.7374C62.2362 70.5741 64.6077 68.924 66.2308 67.5895C67.2047 66.796 69.1073 64.9474 69.7655 64.181C71.073 62.63 71.9297 61.1693 72.4256 59.6093C73.1019 57.4903 73.7692 55.9844 74.0397 55.9844C74.1389 55.9844 74.211 56.0475 74.211 56.1377ZM77.2227 58.0133C77.1957 58.1576 77.1416 58.4461 77.0965 58.6445C77.0514 58.8428 76.9522 59.3117 76.8711 59.6814C76.4923 61.3586 76.0234 62.6571 75.1488 64.4064C73.3003 68.1125 70.4689 70.9438 66.1407 73.3965C65.3922 73.8203 63.0027 74.8843 62.2633 75.1188C61.7133 75.2991 61.4067 75.3532 61.3616 75.2811C61.2985 75.1729 61.4608 75.0647 62.7953 74.3343C64.0126 73.667 64.4184 73.4145 65.6898 72.5218C67.5113 71.2594 70.1623 68.7797 71.6952 66.9402C72.5338 65.9213 73.8503 64.0457 74.5086 62.9276C75.1488 61.8275 76.1948 59.7265 76.5014 58.915C76.9252 57.8059 77.1055 57.4722 77.1867 57.6075C77.2317 57.6796 77.2408 57.86 77.2227 58.0133ZM80.8837 57.7788C80.8837 57.9411 80.4328 59.8528 80.2164 60.5832C78.5302 66.3812 75.3562 71.2053 71.1001 74.4245C68.972 76.0295 66.1948 77.4993 63.9766 78.1936C62.8765 78.5363 61.9116 78.7978 61.7403 78.7978C61.56 78.7978 61.56 78.7887 61.7674 78.5723C61.8846 78.4461 62.0198 78.3469 62.0649 78.3469C62.2633 78.3469 64.4995 77.2108 65.6267 76.5345C66.7178 75.8762 67.3129 75.4795 69.0983 74.172C69.7836 73.676 71.3977 72.2153 72.4797 71.1332C76.0505 67.5444 78.9811 62.7112 80.5681 57.8059C80.6132 57.6796 80.8837 57.6526 80.8837 57.7788ZM83.8142 59.97C83.5798 61.7915 82.3354 65.3262 81.0911 67.7067C77.7908 74.0638 72.4076 78.6896 65.3021 81.2865C64.8332 81.4578 64.4184 81.575 64.3733 81.539C64.2471 81.4668 64.5717 81.2324 65.6447 80.6463C69.7295 78.383 73.9675 74.7671 77.1325 70.8356C79.495 67.9051 81.6141 64.3974 82.8945 61.3045C83.4716 59.9159 83.679 59.5011 83.7782 59.5011C83.8413 59.5011 83.8593 59.6544 83.8142 59.97ZM87.3309 60.2405C87.2768 60.8356 87.1957 61.2414 86.835 62.9276C85.9874 66.8591 83.5888 71.4308 80.6582 74.695C80.2525 75.1368 79.8106 75.6418 79.6573 75.8131C79.3959 76.1197 77.6555 77.7157 76.853 78.401C75.78 79.3208 72.2182 81.8636 72.0198 81.8636C71.9838 81.8636 71.587 82.089 71.1271 82.3685C70.6673 82.6481 69.3959 83.3063 68.3048 83.8383C66.4202 84.7581 65.6087 85.1007 65.5095 85.0106C65.4554 84.9474 66.1948 84.4064 67.0243 83.9015C68.4941 83.0178 71.2083 81.0791 72.9035 79.7085C79.8106 74.1179 85.0316 66.9402 86.835 60.5381C86.9432 60.1413 87.0514 59.7626 87.0694 59.6995C87.0875 59.6454 87.1686 59.5913 87.2498 59.5913C87.376 59.5913 87.385 59.6724 87.3309 60.2405ZM90.8025 61.1332C90.8025 61.4218 90.2435 63.4326 89.7746 64.8212C88.8819 67.4813 88.0162 69.3749 86.5735 71.7824C85.0045 74.4064 83.2462 76.6066 80.8296 78.9871C78.927 80.8447 77.5473 81.9808 75.4644 83.4055C73.0117 85.0917 68.5753 87.4542 67.8629 87.4542C67.7187 87.4542 67.7187 87.4362 67.908 87.2919C68.0252 87.2017 68.5933 86.8501 69.1614 86.5074C72.9486 84.2712 75.9784 81.8456 79.3959 78.3379C81.4878 76.1828 83.4085 73.7662 85.3381 70.8627C87.2949 67.9321 88.6114 65.5426 89.8197 62.7563C90.523 61.1242 90.6132 60.9438 90.7123 60.9438C90.7574 60.9438 90.8025 61.025 90.8025 61.1332ZM94.0938 62.2243C93.9134 63.3785 92.7863 67.0575 92.0649 68.8338C90.8386 71.8546 88.6655 75.5426 86.6186 78.0764C82.3715 83.3334 76.9793 87.4722 70.4869 90.4659C69.8197 90.7725 69.2696 90.8897 69.3778 90.7094C69.4049 90.6643 69.7655 90.4299 70.1803 90.1954C72.7502 88.7076 75.3742 86.8591 77.7277 84.8483C79.2155 83.5859 82.0289 80.7815 83.3904 79.2216C87.3129 74.686 90.9738 68.8879 93.0478 63.9195C93.7872 62.1521 93.9405 61.8546 94.1208 61.8456C94.1389 61.8456 94.1298 62.0169 94.0938 62.2243Z" fill="#FBE8CD"/>
<path d="M47.4761 31.992C46.975 32.0568 46.1071 32.2513 45.5692 32.4197C44.3224 32.8086 40.8753 34.7268 39.6896 35.6859C37.526 37.4356 35.5825 40.2482 34.5924 43.0348C33.8834 45.0437 33.7245 46.0158 33.7489 48.2451C33.7734 50.5651 34.0056 52.0815 34.6779 54.4793C34.9957 55.6328 35.2035 56.1124 35.6925 56.8123C36.0225 57.3048 36.5726 58.1602 36.9026 58.7175C37.6361 59.9618 39.6041 61.8152 41.3521 62.9428C42.2077 63.4872 42.5989 63.6557 42.55 63.4353C42.5255 63.2668 42.5989 63.2539 43.1734 63.4094C43.3812 63.4613 43.5645 63.552 43.5645 63.6168C43.5645 63.6816 43.7357 63.7334 43.9313 63.7334C44.1391 63.7334 44.298 63.7853 44.298 63.8501C44.298 63.9019 44.5913 63.9927 44.9458 64.0315C45.3248 64.0834 45.6426 64.2 45.7281 64.3296C45.8259 64.4722 45.9482 64.5111 46.0949 64.4463C46.2171 64.3815 46.3393 64.3426 46.376 64.3426C46.4127 64.3556 46.9627 64.3944 47.5984 64.4463C48.234 64.4981 48.9307 64.55 49.1263 64.5759C50.0064 64.6666 52.8301 64.3815 53.6491 64.1093C54.1258 63.9667 54.5903 63.8242 54.7126 63.8112C54.8226 63.7982 54.9815 63.7205 55.0793 63.6557C55.1648 63.5779 55.4826 63.4483 55.7882 63.3576C56.0938 63.2668 56.7295 62.9947 57.2062 62.7484C57.6829 62.5021 58.1596 62.3077 58.2574 62.3077C58.3552 62.3077 58.5386 62.1911 58.6608 62.0485C58.783 61.9059 58.9786 61.7893 59.0886 61.7893C59.1986 61.7893 59.3942 61.6856 59.5287 61.556C59.6509 61.4264 59.9443 61.206 60.1643 61.0635C60.3966 60.9339 60.8122 60.5839 61.0933 60.2988C62.2057 59.1841 62.9024 58.5361 62.9635 58.5879C63.0124 58.6527 62.8046 58.9638 62.389 59.4434C62.2912 59.56 62.0468 59.8451 61.839 60.0914L61.4723 60.5321L62.0468 60.1173C62.6702 59.6767 63.8192 58.2509 64.1492 57.5122C64.3448 57.0715 64.3448 57.0715 64.137 57.3696C63.7214 57.9528 63.2325 58.4454 63.1591 58.3676C63.1102 58.3287 63.1958 58.1213 63.3425 57.9269C63.4892 57.7325 63.7459 57.3696 63.917 57.1233C64.736 55.8791 64.9316 55.6328 65.0782 55.6717C65.2127 55.7106 65.2127 55.6717 65.0782 55.5032C64.9438 55.3218 64.956 55.2829 65.176 55.2181C65.3227 55.1792 65.4083 55.1014 65.3716 55.0366C65.3349 54.9718 65.3716 54.92 65.445 54.92C65.6772 54.92 66.0195 53.8701 66.1173 52.911C66.1661 52.4056 66.2395 51.939 66.2884 51.8742C66.6062 51.4335 66.814 49.9559 66.8262 48.1803C66.8385 45.8991 66.6306 44.8363 65.6894 42.5293C64.4915 39.6001 64.0881 38.965 62.2912 37.0079C60.91 35.5045 60.4577 35.1027 59.4065 34.4417C58.7097 34.0139 57.8296 33.5214 57.4262 33.3529C57.0351 33.1844 56.485 32.9382 56.2161 32.8215C55.9471 32.6919 55.2015 32.4457 54.5659 32.2772C53.5635 32.005 53.0624 31.9532 50.8988 31.9143C49.5175 31.8883 47.9773 31.9272 47.4761 31.992ZM49.6397 34.2732C50.0676 34.9471 50.1776 35.4008 50.2509 36.7357C50.2876 37.4616 50.3609 38.0318 50.4098 38.0059C50.4587 37.98 50.5321 37.319 50.5809 36.5543C50.6543 35.336 50.7032 35.1027 50.9721 34.7268C51.4366 34.0917 51.8278 33.9751 52.4512 34.2991C53.1235 34.649 53.4657 35.323 53.4657 36.321C53.4657 37.0727 53.0746 38.0837 52.1456 39.7168C51.7422 40.4296 51.0943 42.0368 50.9477 42.633C50.911 42.8404 50.8376 42.97 50.7887 42.944C50.7521 42.9181 50.7276 43.1644 50.7521 43.4884C50.801 44.3438 50.5443 43.8902 50.4465 42.97C50.3731 42.1923 49.6764 40.8314 48.9552 40.0149C47.8306 38.7706 46.9872 37.0079 46.9872 35.9322C46.9872 35.0638 47.5861 34.2472 48.3807 34.0399C49.1263 33.8584 49.4075 33.9103 49.6397 34.2732ZM54.0769 34.1047C54.0769 34.0658 54.2358 34.1565 54.4314 34.2991C54.627 34.4546 54.9204 34.5583 55.0793 34.5453C55.446 34.5194 56.3994 34.9601 56.3994 35.1804C56.3994 35.2712 56.4728 35.31 56.5828 35.2712C56.6806 35.2193 56.8395 35.2452 56.925 35.323C56.9984 35.3878 57.2062 35.4915 57.3773 35.5433C57.5485 35.5952 57.8418 35.7766 58.0252 35.9451C58.2208 36.1136 58.453 36.2562 58.5386 36.2562C58.6364 36.2562 58.7586 36.334 58.8075 36.4247C58.8564 36.5154 59.1009 36.7357 59.3331 36.9042C60.1888 37.5134 62.2668 39.7427 62.2668 40.0538C62.2668 40.1056 62.4868 40.4426 62.7557 40.8055C63.0247 41.1684 63.2447 41.5572 63.2447 41.6868C63.2447 41.8035 63.3058 41.972 63.3914 42.0627C63.587 42.2701 64.0637 43.7606 64.357 45.0696C64.846 47.26 64.8215 50.7077 64.2959 51.7705C64.1859 52.0038 64.1003 52.25 64.1003 52.3278C64.1003 52.5352 63.5992 53.6239 63.1591 54.3367C61.9979 56.242 61.13 57.3566 59.9565 58.4583C58.8686 59.4693 58.8564 59.4822 58.7219 59.3915C58.6608 59.3526 58.5752 59.4045 58.5141 59.4952C58.3797 59.7415 57.3406 60.2988 56.2772 60.6876C55.776 60.882 54.9204 61.1931 54.3825 61.4005C51.5833 62.4633 49.0774 62.4892 44.7747 61.4523C43.9313 61.2579 42.6355 60.6746 42.2199 60.3117C42.1222 60.234 41.8899 60.0784 41.7065 59.9748C41.5232 59.884 41.2543 59.7026 41.132 59.56C40.9976 59.4304 40.8387 59.3267 40.7775 59.3267C40.6309 59.3267 39.2863 57.8492 38.7117 57.0585C37.8072 55.8143 37.2205 54.8293 37.0249 54.259C36.9149 53.9479 36.7804 53.598 36.7315 53.4943C36.6337 53.2999 36.4626 52.574 36.4504 52.3667C36.4504 52.3019 36.4137 52.1982 36.3526 52.1334C36.0592 51.7186 35.7169 47.5193 35.9736 47.3508C36.0714 47.286 36.1081 47.5322 36.1081 48.2062C36.1081 48.7246 36.1937 49.6449 36.2915 50.254C36.4993 51.5761 37.2571 53.8701 37.5627 54.1423C37.5994 54.1812 37.7705 54.4923 37.9294 54.8293C38.0883 55.1662 38.3328 55.5162 38.455 55.581C38.7484 55.7495 38.724 55.6199 38.2961 54.8552C38.1006 54.4923 37.905 54.1164 37.8683 54.0127C36.9882 51.7705 36.5726 49.8004 36.6093 48.0507C36.6215 47.2989 36.6704 46.5083 36.7193 46.3009C36.7682 46.0806 36.8782 45.5881 36.9638 45.1993C37.2938 43.6958 39.1274 40.2871 39.6285 40.2741C39.7019 40.2741 39.7752 40.2222 39.7752 40.1574C39.7752 39.9889 41.242 38.4596 41.4132 38.4596C41.4621 38.4596 41.5721 38.3818 41.6699 38.2911C41.9755 37.993 42.3422 37.6819 42.4155 37.6819C42.4522 37.6819 42.7089 37.5134 42.99 37.306C43.589 36.8783 44.3469 36.5154 44.6769 36.5154C44.9825 36.5154 45.117 37.0857 44.9092 37.5004C44.7747 37.7467 44.6525 37.8115 44.2735 37.8115C43.8946 37.8115 43.589 37.967 42.7945 38.5373C41.132 39.7427 39.8119 41.4795 39.054 43.4625C38.4673 44.9789 38.4184 45.0956 38.5039 44.4864C38.5406 44.2013 38.6262 43.8902 38.6995 43.7995C38.7729 43.7217 38.7973 43.6439 38.7606 43.6439C38.724 43.6439 38.8584 43.1514 39.054 42.5423C39.2618 41.9331 39.384 41.3758 39.3352 41.298C39.2007 41.0647 38.5406 41.9331 38.0761 42.944C37.5016 44.2142 37.4894 44.2531 37.2816 45.3289C36.8782 47.3897 36.9882 49.1005 37.6605 51.1613C37.9905 52.2111 39.0173 54.3627 39.4941 54.9848C40.2519 55.9957 40.7531 56.7345 40.7531 56.8641C40.7531 56.9289 40.8142 56.9937 40.8876 56.9937C40.9609 56.9937 41.4254 57.3437 41.9266 57.7584C42.4155 58.1861 42.9289 58.562 43.0756 58.6139C43.2101 58.6527 43.3201 58.7435 43.3201 58.8083C43.3201 58.899 43.7846 59.1064 45.5203 59.7674C45.7526 59.8581 46.4738 60.0655 47.1094 60.234C47.7451 60.4025 48.3318 60.571 48.3929 60.6228C48.4662 60.6746 49.0897 60.7265 49.7986 60.7395C50.5076 60.7524 51.131 60.8172 51.1921 60.882C51.2655 60.9598 51.3877 60.9468 51.4977 60.8302C51.6689 60.6746 52.9034 60.234 54.847 59.6507C55.776 59.3656 57.7074 58.3158 58.6364 57.5899C60.91 55.8272 62.3035 53.7276 63.4036 50.4484C63.6358 49.7615 63.6603 49.3856 63.6725 47.3378C63.6725 44.94 63.6114 44.4994 63.0247 42.7367C62.6702 41.7128 61.5334 39.8723 60.6044 38.8484C59.5654 37.6949 57.8051 36.334 56.2283 35.4267C54.957 34.7009 54.5659 34.6879 54.5659 35.3878C54.5659 35.6341 54.6637 35.9322 54.7981 36.0747C55.0304 36.3469 55.2993 36.8265 55.2993 36.969C55.2993 37.0079 55.2015 37.0209 55.0915 36.982C54.7614 36.8783 54.6514 37.0079 54.1992 37.98C53.7958 38.8613 53.478 39.2891 53.7102 38.654C54.2114 37.2412 54.138 35.0508 53.5635 34.3639C53.2946 34.0399 53.3924 33.8973 53.7836 34.0528C53.9425 34.1176 54.0769 34.1436 54.0769 34.1047ZM46.156 35.1416C46.1315 35.2582 46.1682 35.3489 46.2293 35.3489C46.2782 35.3489 46.3271 35.5693 46.3149 35.8285C46.3149 36.1007 46.3516 36.5802 46.4004 36.9042C46.4738 37.306 46.4616 37.4227 46.376 37.2801C46.3149 37.1635 46.2049 36.6969 46.1437 36.2432C46.0704 35.7896 45.9848 35.2712 45.9359 35.1027C45.8748 34.8694 45.8871 34.8175 46.0215 34.8564C46.1193 34.8953 46.1804 35.0119 46.156 35.1416ZM57.4384 36.9042C57.4751 36.969 57.4873 37.0338 57.4507 37.0338C57.414 37.0338 57.3529 36.969 57.3162 36.9042C57.2795 36.8265 57.2673 36.7746 57.304 36.7746C57.3406 36.7746 57.4018 36.8265 57.4384 36.9042ZM58.2941 37.4227C58.4163 37.5653 58.5875 37.6819 58.673 37.6819C58.7586 37.6819 59.0153 37.8763 59.2475 38.0966C59.4676 38.3299 59.8465 38.7058 60.0788 38.9262C61.6312 40.4037 62.6335 42.2701 63.0736 44.5253C63.3547 45.9121 63.3547 48.5302 63.098 49.5671C62.7313 50.9798 61.8023 53.0536 61.5578 53.0018C61.46 52.9888 61.2156 53.1314 60.9955 53.3258C60.7755 53.5202 60.3843 53.8572 60.1276 54.0775C59.8587 54.2849 59.5165 54.6219 59.3576 54.8163C58.9419 55.2958 57.5973 56.229 56.6194 56.7216C55.446 57.2918 55.3849 57.2141 56.4239 56.4883C57.6462 55.6199 59.0031 54.3627 59.8832 53.2869C60.8 52.1852 61.1789 51.5501 61.5945 50.5003C61.7778 50.0467 61.9734 49.606 62.0345 49.5282C62.0957 49.4505 62.2301 48.7765 62.3401 48.0377C62.5357 46.6379 62.499 44.7586 62.2423 43.7087C61.9245 42.3738 60.8 40.2093 59.9198 39.2372C59.382 38.654 58.3674 37.6819 57.9763 37.3968C57.7685 37.2412 57.7318 37.1764 57.8785 37.1764C57.9885 37.1635 58.1719 37.2801 58.2941 37.4227ZM46.706 38.1744C46.8894 38.3688 46.9261 38.978 46.7549 38.978C46.6816 38.978 46.5594 38.8613 46.4616 38.7188C46.3638 38.5762 46.1437 38.4466 45.9726 38.4336C45.5326 38.3948 45.557 38.2522 46.046 37.9411C46.3271 37.7597 46.4493 37.7337 46.486 37.8374C46.5105 37.9282 46.6082 38.0837 46.706 38.1744ZM55.4826 38.2781C55.8249 38.4207 56.6194 39.8464 56.8884 40.8185C57.304 42.2571 57.3284 42.9181 57.0106 44.0976C56.6439 45.4844 55.9349 46.9101 55.4704 47.1823C55.3726 47.2341 55.2993 47.3767 55.2993 47.4674C55.2993 47.5711 55.2504 47.6618 55.1893 47.6618C55.1404 47.6618 54.847 47.9081 54.5414 48.2062C54.2481 48.5173 53.7958 48.932 53.5391 49.1524C53.2824 49.3597 52.9034 49.6967 52.6956 49.8911C52.4878 50.0985 52.28 50.254 52.2189 50.254C52.17 50.254 52.1211 50.3448 52.1211 50.4484C52.1211 50.5521 52.0722 50.6429 52.0111 50.6429C51.7544 50.6429 51.0454 52.3019 50.8376 53.4165C50.7399 53.922 50.6665 53.7924 50.6543 53.0406C50.6421 52.6777 50.5687 52.2111 50.4954 52.0038C50.3731 51.602 49.5542 50.7077 48.8696 50.2022C46.1315 48.2062 45.3614 47.3378 44.738 45.5622C44.1757 43.9939 44.2124 42.0497 44.7991 41.1554C44.9336 40.974 45.0314 40.7536 45.0314 40.6759C45.0314 40.5981 45.1414 40.4815 45.2759 40.4037C45.3981 40.3259 45.4837 40.1963 45.447 40.0926C45.3492 39.8334 45.7159 39.5872 46.0704 39.6779C46.2538 39.7297 46.3516 39.8205 46.3027 39.8982C46.266 39.976 46.1193 40.0149 45.9971 39.976C45.8626 39.9371 45.7648 39.963 45.7648 40.0278C45.7648 40.0926 45.8382 40.1445 45.9237 40.1445C45.9971 40.1445 46.156 40.1963 46.2538 40.2741C46.4004 40.3648 46.376 40.4555 46.0826 40.7536C45.2636 41.622 44.9092 43.8772 45.4592 44.7067C45.557 44.8752 45.6426 45.0956 45.6426 45.2252C45.6426 45.4585 45.8504 45.6659 45.9726 45.5362C46.0093 45.4974 45.9971 45.3937 45.9237 45.3029C45.3981 44.5512 45.4103 42.8404 45.9482 41.972C46.1437 41.6739 46.3516 41.4535 46.4127 41.4795C46.486 41.5054 46.5227 41.959 46.5105 42.5552C46.486 43.6828 46.7183 44.4994 47.2928 45.2252C47.4639 45.4326 47.5984 45.6918 47.5984 45.7825C47.5984 46.0028 48.0873 46.3787 48.234 46.288C48.2951 46.2491 48.2096 46.1065 48.0506 45.9769C47.7206 45.7047 47.0361 44.279 46.8772 43.5273C46.8161 43.2033 46.8161 42.7756 46.8894 42.4126C46.9994 41.8424 47.0239 41.8164 47.3906 41.8553C47.7084 41.8813 47.7939 41.959 47.8184 42.2182C47.8795 42.6848 48.0751 42.8533 48.2218 42.5682C48.4051 42.2312 48.6252 42.296 49.1508 42.8533C49.5542 43.281 49.6519 43.5014 49.7742 44.2013C49.8597 44.6549 49.9209 45.3418 49.9209 45.7177C49.9209 46.3009 50.1531 47.6878 50.5198 49.3468C50.6054 49.7486 50.6298 49.6838 50.691 48.7635C50.7399 48.1932 50.8376 47.4026 50.911 47.0138C50.9843 46.625 51.0699 46.0676 51.1066 45.7825C51.2533 44.4734 52.1823 42.4775 53.1113 41.4795C53.7224 40.8185 53.9791 40.8833 54.1869 41.7646C54.3336 42.3608 54.5659 42.5552 54.5659 42.0757C54.5659 41.6609 54.0891 40.6629 53.8936 40.6629C53.588 40.6629 53.6858 40.2871 54.1503 39.6779C54.6759 39.0039 54.9815 38.9521 55.5438 39.4446C55.7516 39.639 55.9594 39.7557 55.996 39.7168C56.1183 39.5872 55.4215 38.7188 55.2015 38.7188C55.0915 38.7188 54.9081 38.654 54.8103 38.5892C54.6514 38.4725 54.6514 38.4466 54.8103 38.3299C55.0304 38.1874 55.2015 38.1744 55.4826 38.2781ZM58.2574 38.7447C59.712 39.5483 61.1667 41.7776 61.6067 43.8384C61.9734 45.5622 61.729 48.3488 61.0933 49.8652C60.7511 50.6688 60.5066 51.1613 60.421 51.1613C60.3721 51.1613 60.2743 51.3298 60.1888 51.5372C60.0299 51.9519 59.3698 52.6777 59.2598 52.5611C59.1864 52.4704 59.3942 52.0038 60.1643 50.5133C60.8122 49.256 61.0933 47.9729 61.0933 46.2361C61.0933 45.0956 61.0322 44.6938 60.7511 43.7865C60.3355 42.4256 60.091 41.9201 59.5165 41.2073C59.1375 40.7407 58.9908 40.6629 58.6853 40.6888C58.3063 40.7277 58.2941 40.7018 58.0985 39.9501C57.8907 39.2113 57.8174 38.5892 57.9152 38.5892C57.9396 38.5892 58.0985 38.6669 58.2574 38.7447ZM47.1705 39.2372C47.2072 39.302 47.195 39.3668 47.1216 39.3668C47.0605 39.3668 46.9627 39.302 46.9261 39.2372C46.8894 39.1594 46.9016 39.1076 46.975 39.1076C47.0361 39.1076 47.1339 39.1594 47.1705 39.2372ZM46.8649 40.1445C47.0116 40.2482 46.9994 40.2741 46.7794 40.2741C46.6205 40.2741 46.4982 40.2093 46.4982 40.1445C46.4982 39.976 46.6327 39.976 46.8649 40.1445ZM41.4865 41.5054C41.4865 41.5313 41.2665 42.0886 40.9976 42.7496C40.3864 44.2142 40.1419 45.3937 40.1419 46.8712C40.1419 49.1783 40.7409 51.2002 41.8777 52.7425C42.2688 53.2739 42.0855 53.2999 41.5965 52.7814C41.1443 52.3019 40.7531 52.1852 40.7531 52.5611C40.7531 52.8462 41.951 54.5182 42.6111 55.1533C42.88 55.4125 43.2956 55.7624 43.5401 55.918C43.7846 56.0735 44.029 56.2938 44.0779 56.3975C44.1391 56.5142 44.2369 56.6049 44.3102 56.6049C44.5058 56.6049 46.6082 57.6936 46.6205 57.8103C46.6205 57.8621 46.4738 57.8232 46.2904 57.7195C46.0949 57.6288 45.777 57.4992 45.557 57.4603C45.3492 57.4085 45.1047 57.2789 45.0192 57.1752C44.9458 57.0715 44.8114 56.9937 44.738 56.9937C44.518 56.9937 42.0977 55.2181 42.0977 55.0496C42.0977 55.0107 41.8655 54.7256 41.5965 54.4015C40.9242 53.6239 40.5086 52.9499 40.0319 51.939C39.653 51.0965 39.1274 49.1394 39.2374 48.945C39.2618 48.8931 39.2374 48.8154 39.164 48.7635C39.0907 48.7246 39.0418 48.1414 39.0418 47.4285C39.054 45.4196 39.7385 43.3458 40.8509 41.9979C41.2543 41.5054 41.4865 41.3239 41.4865 41.5054ZM59.6143 42.5682C60.6777 44.2013 60.9589 46.7287 60.3232 48.8154C60.0054 49.8393 59.4676 51.0317 59.3209 51.0317C59.2598 51.0317 59.2109 51.0835 59.2109 51.1483C59.2109 51.4076 57.2306 53.5072 57.0473 53.4424C56.9617 53.4035 56.925 53.4554 56.9739 53.572C57.0106 53.6887 56.9617 53.7535 56.815 53.7535C56.6806 53.7535 56.4116 53.922 56.2038 54.1294C55.7882 54.5441 55.3604 54.7385 55.2504 54.5441C55.2137 54.4793 55.3115 54.3886 55.4826 54.3497C55.6538 54.2979 55.7882 54.2071 55.7882 54.1423C55.7882 54.0646 55.8738 54.0127 55.9716 54.0127C56.0694 54.0127 56.1549 53.9479 56.1549 53.8831C56.1549 53.8053 56.2405 53.7535 56.3505 53.7535C56.485 53.7535 56.5339 53.6757 56.485 53.4943C56.4239 53.2221 56.485 53.1184 57.1084 52.5222C57.4507 52.1982 57.5362 52.1723 57.634 52.3278C57.7318 52.4833 57.744 52.4574 57.6829 52.2241C57.634 52.0556 57.6585 51.939 57.7318 51.939C57.8051 51.939 57.8663 51.9908 57.8663 52.0686C57.8663 52.263 58.0741 52.2241 58.1474 52.0167C58.1963 51.8871 58.1596 51.8482 58.0374 51.9001C57.9518 51.939 57.8663 51.939 57.8663 51.9001C57.8663 51.8612 58.1352 51.2261 58.4774 50.5003C59.1375 49.0357 59.2109 48.5691 59.0397 46.9231C58.9542 46.1324 58.9053 45.9899 58.6853 45.9251C58.5386 45.8862 58.343 45.938 58.233 46.0417C57.8663 46.3917 57.8663 46.2491 58.233 45.1604C58.4163 44.5771 58.6486 43.7217 58.7219 43.2551C58.7953 42.7885 58.8808 42.3349 58.9053 42.2442C59.0031 41.9461 59.2964 42.0886 59.6143 42.5682ZM42.6478 43.0218C42.6722 43.1903 42.7822 43.7865 42.8922 44.3568C42.99 44.9271 43.1489 45.627 43.2467 45.9121C43.3445 46.1973 43.4301 46.5342 43.4423 46.6509C43.4423 46.8583 43.4179 46.8583 43.0512 46.625L42.66 46.3787L42.3911 46.6768C42.0121 47.0786 41.9266 48.6728 42.2444 49.8004C42.66 51.3298 42.8922 51.939 43.0512 51.8742C43.1245 51.8482 43.1978 51.8871 43.1978 51.9908C43.1978 52.0815 43.3323 52.2889 43.5034 52.4574C43.6746 52.6259 43.809 52.8073 43.809 52.8721C43.809 53.1962 45.3492 54.3756 46.6449 55.0496C47.2072 55.3477 47.7573 55.6328 47.8673 55.7106C48.1484 55.8661 48.454 55.8661 48.454 55.6976C48.454 55.6199 48.3562 55.568 48.2462 55.568C48.124 55.568 47.7206 55.3607 47.3539 55.1144C46.9872 54.8681 46.6205 54.6608 46.5471 54.6608C46.3638 54.6608 45.0069 53.572 44.2857 52.8462C43.7846 52.3407 43.589 52.0556 43.3323 51.4594C43.2712 51.3168 43.1489 51.1483 43.0878 51.0965C43.0145 51.0576 42.9534 50.9021 42.9534 50.7725C42.9534 50.6429 42.8922 50.5133 42.8311 50.4873C42.7578 50.4614 42.66 49.9041 42.6233 49.2431C42.5622 48.2062 42.5744 48.0118 42.77 47.7914C42.8922 47.6489 43.0634 47.5322 43.1367 47.5322C43.2223 47.5322 43.809 48.1155 44.4324 48.8154C45.0558 49.5282 45.6915 50.1763 45.8382 50.267C45.9848 50.3448 46.1437 50.5262 46.1682 50.6558C46.2049 50.7984 46.3271 50.9021 46.4616 50.9021C46.5838 50.9021 46.8161 51.0187 46.9872 51.1613C47.1583 51.3039 47.3661 51.4205 47.4517 51.4205C47.525 51.4205 47.5984 51.5242 47.5984 51.6409C47.6106 51.7705 47.9162 52.1075 48.2951 52.3926C49.6642 53.4295 50.2509 54.6478 49.9331 55.8013C49.8597 56.0346 49.8475 56.3198 49.8842 56.4235C50.0798 56.9808 50.8988 56.1902 51.3266 55.0107C51.7055 53.9349 52.0356 53.4424 52.549 53.1832C52.9768 52.9629 53.2457 52.6777 53.1968 52.5092C53.1601 52.3407 53.7836 51.6149 55.7027 49.606C56.6194 48.621 57.3773 47.7655 57.3773 47.7007C57.3773 47.6359 57.5851 47.4156 57.8296 47.2341C58.4408 46.7675 58.5997 46.936 58.5997 48.0247C58.5997 49.1783 58.1352 50.8114 57.6218 51.4724C57.1206 52.1075 55.9227 53.3647 55.8127 53.3647C55.6293 53.3647 54.7492 54.1553 54.7859 54.2979C54.7981 54.3627 54.6148 54.5052 54.3825 54.6089C53.9302 54.8033 53.7958 55.0496 54.1747 54.9848C54.2847 54.9718 54.3092 54.9848 54.2358 55.0107C54.1503 55.0496 54.0769 55.1274 54.0769 55.1922C54.0769 55.2699 53.9791 55.3088 53.8569 55.2829C53.7224 55.257 53.4902 55.3088 53.3313 55.3995C53.1724 55.4773 52.9401 55.581 52.8301 55.6199C52.7079 55.6588 52.6468 55.7624 52.6834 55.8661C52.7201 55.9828 52.5979 56.1902 52.3901 56.3586C52.1945 56.5271 51.8644 56.9419 51.6444 57.2789C51.2166 57.9528 50.9354 58.0436 50.6054 57.6547C50.4832 57.5122 50.2142 57.3307 50.0064 57.24C49.7864 57.1493 49.5664 57.0067 49.493 56.916C49.4319 56.8382 49.1508 56.7216 48.8819 56.6697C47.4761 56.4105 45.2392 55.2829 44.1513 54.2719C42.5989 52.8592 41.8288 51.6538 41.242 49.8004C40.7775 48.3099 40.8753 45.4196 41.4254 44.1624C42.0244 42.8015 42.5011 42.3608 42.6478 43.0218ZM38.3328 45.4844C38.235 45.5881 38.2228 45.5362 38.2717 45.3159C38.3206 45.1474 38.3695 45.0826 38.4062 45.1863C38.4306 45.277 38.3939 45.4196 38.3328 45.4844ZM65.8117 54.0127C65.6039 54.4275 65.5427 54.246 65.7139 53.7405C65.8117 53.4554 65.8728 53.3776 65.9095 53.5202C65.9339 53.6368 65.885 53.8701 65.8117 54.0127ZM65.4083 54.6219C65.3594 54.6608 65.3227 54.6219 65.3227 54.5312C65.3227 54.4404 65.3594 54.4015 65.4083 54.4404C65.445 54.4923 65.445 54.57 65.4083 54.6219ZM53.0624 55.918C53.0135 55.9569 52.9401 55.9569 52.8912 55.918C52.8546 55.8661 52.8912 55.8272 52.9768 55.8272C53.0624 55.8272 53.099 55.8661 53.0624 55.918ZM55.0548 57.3826C55.0548 57.4474 54.9937 57.5122 54.9204 57.5122C54.8592 57.5122 54.8348 57.4474 54.8715 57.3826C54.9081 57.3048 54.9693 57.253 55.0059 57.253C55.0304 57.253 55.0548 57.3048 55.0548 57.3826ZM54.5659 57.6418C54.2725 57.8362 54.1136 57.7844 54.3703 57.577C54.5048 57.4733 54.6392 57.4214 54.6759 57.4603C54.7126 57.4992 54.6637 57.577 54.5659 57.6418ZM47.4761 58.0306C47.4761 58.0954 47.3906 58.1602 47.2928 58.1602C47.195 58.1602 47.1094 58.0954 47.1094 58.0306C47.1094 57.9528 47.195 57.901 47.2928 57.901C47.3906 57.901 47.4761 57.9528 47.4761 58.0306ZM48.454 58.2898C48.454 58.3546 48.344 58.4194 48.2218 58.4194C48.0873 58.4194 47.9406 58.3546 47.904 58.2898C47.8551 58.2121 47.9651 58.1602 48.1362 58.1602C48.3073 58.1602 48.454 58.2121 48.454 58.2898ZM49.9209 58.5361C49.9209 58.7175 49.6886 58.7694 49.2608 58.6916L48.8819 58.6268L49.2486 58.5361C49.7986 58.4065 49.9209 58.4065 49.9209 58.5361Z" fill="#FBE8CD"/>
<path d="M38.675 55.9439C38.675 56.0217 38.7362 56.1124 38.7973 56.1513C38.8706 56.1902 38.9195 56.1383 38.9195 56.0346C38.9195 55.918 38.8706 55.8273 38.7973 55.8273C38.7362 55.8273 38.675 55.8791 38.675 55.9439Z" fill="#FBE8CD"/>
<path d="M39.0417 56.4623C39.0417 56.5271 39.1029 56.6308 39.164 56.6697C39.2373 56.7086 39.2862 56.6956 39.2862 56.6178C39.2862 56.553 39.2373 56.4493 39.164 56.4105C39.1029 56.3716 39.0417 56.3845 39.0417 56.4623Z" fill="#FBE8CD"/>
<path d="M48.2095 61.9189C48.2095 61.9837 48.2584 62.0485 48.3195 62.0485C48.3928 62.0485 48.4784 61.9837 48.5151 61.9189C48.5517 61.8411 48.5028 61.7893 48.4051 61.7893C48.295 61.7893 48.2095 61.8411 48.2095 61.9189Z" fill="#FBE8CD"/>
<path d="M56.4116 40.7407C56.4116 40.8832 56.4482 40.9221 56.4849 40.8184C56.5216 40.7277 56.5094 40.6111 56.4727 40.5722C56.436 40.5203 56.3994 40.5981 56.4116 40.7407Z" fill="#FBE8CD"/>
<path d="M56.6438 41.959C56.6438 42.1664 56.7049 42.3478 56.766 42.3478C56.8394 42.3478 56.8883 42.1664 56.8883 41.959C56.8883 41.7387 56.8394 41.5702 56.766 41.5702C56.7049 41.5702 56.6438 41.7387 56.6438 41.959Z" fill="#FBE8CD"/>
<path d="M56.7171 42.9441C56.6804 43.0607 56.6438 43.281 56.6438 43.4495C56.6438 43.7736 56.4726 44.2272 55.947 45.3807C55.7881 45.7307 55.6903 46.0547 55.7392 46.0936C55.8492 46.2102 56.3993 45.4714 56.3993 45.2122C56.3993 45.0826 56.4726 44.7715 56.5704 44.5383C56.7171 44.1235 56.9249 42.7367 56.8393 42.7367C56.8149 42.7367 56.7538 42.8274 56.7171 42.9441Z" fill="#FBE8CD"/>
<path d="M54.3213 43.5143C54.3213 43.605 54.358 43.6439 54.4069 43.605C54.4435 43.5532 54.4435 43.4754 54.4069 43.4236C54.358 43.3847 54.3213 43.4236 54.3213 43.5143Z" fill="#FBE8CD"/>
<path d="M54.0402 44.0716C53.9057 44.4475 53.9301 44.7586 54.0891 44.5901C54.1624 44.5123 54.1991 44.3179 54.1746 44.1494C54.1379 43.8772 54.1257 43.8643 54.0402 44.0716Z" fill="#FBE8CD"/>
<path d="M46.3146 46.3658C46.3513 46.4306 46.4124 46.4954 46.4491 46.4954C46.4858 46.4954 46.4735 46.4306 46.4369 46.3658C46.4002 46.288 46.3391 46.2361 46.3024 46.2361C46.2657 46.2361 46.278 46.288 46.3146 46.3658Z" fill="#FBE8CD"/>
<path d="M55.6047 46.3528C55.5681 46.4176 55.5925 46.5083 55.6659 46.5601C55.727 46.599 55.7881 46.5472 55.7881 46.4435C55.7881 46.2102 55.7148 46.1713 55.6047 46.3528Z" fill="#FBE8CD"/>
<path d="M52.5244 48.0118C52.5733 48.0507 52.6467 48.0507 52.6955 48.0118C52.7322 47.9599 52.6955 47.9211 52.61 47.9211C52.5244 47.9211 52.4877 47.9599 52.5244 48.0118Z" fill="#FBE8CD"/>
<path d="M58.5996 50.9669C58.514 51.0836 58.4651 51.2002 58.5018 51.2261C58.5385 51.265 58.6363 51.2132 58.7218 51.0965C58.8074 50.9799 58.8563 50.8632 58.8196 50.8373C58.783 50.7984 58.6852 50.8503 58.5996 50.9669Z" fill="#FBE8CD"/>
<path d="M57.2917 52.6777C57.3406 52.7166 57.414 52.7166 57.4629 52.6777C57.4996 52.6259 57.4629 52.587 57.3773 52.587C57.2917 52.587 57.2551 52.6259 57.2917 52.6777Z" fill="#FBE8CD"/>
<path d="M64.3936 56.8901C64.3447 56.9808 64.3569 56.9937 64.4425 56.9419C64.528 56.8901 64.5892 56.8253 64.5892 56.7864C64.5892 56.6827 64.4792 56.7345 64.3936 56.8901Z" fill="#FBE8CD"/>
</svg>
