<svg width="100" height="99" viewBox="0 0 100 99" fill="none" xmlns="http://www.w3.org/2000/svg">
<path d="M46.6727 0.131859C45.3472 0.203995 42.5068 0.546646 41.028 0.808144C32.8945 2.26892 25.3832 5.56017 18.954 10.4925C15.257 13.3239 11.8124 16.8226 9.23354 20.3483C4.24707 27.1742 1.21731 34.6765 0.135257 42.864C0.0270514 43.6846 0 44.9831 0 49.167C0 52.0615 0.0360685 54.6855 0.0901713 54.9831C0.135257 55.2897 0.234445 56.002 0.3156 56.5701C0.613165 58.635 1.40667 61.9623 2.08296 64.0002C3.93147 69.5728 6.77187 74.8208 10.3156 79.2482C12.4436 81.8992 14.229 83.7297 17.2768 86.3807C17.881 86.9037 20.541 88.9145 21.2804 89.4015C26.6096 92.9452 31.9567 95.2897 38.1425 96.7865C40.1623 97.2824 42.3535 97.6251 45.6267 97.9768C47.2678 98.1481 52.7322 98.121 54.5536 97.9317C58.2958 97.5259 60.3426 97.1562 63.3814 96.3266C75.7529 92.9272 86.4743 84.9109 92.9486 74.1986C97.6105 66.4889 100 57.9587 100 49.0498C100 38.7071 96.6546 28.6621 90.4148 20.231C88.0162 17.0029 84.0126 12.8911 81.3526 10.9254C81.073 10.718 80.5951 10.3483 80.2976 10.1048C79.5942 9.54575 76.6005 7.55296 75.789 7.11111C75.4463 6.92176 74.9955 6.66026 74.7971 6.54304C74.1839 6.1553 70.9829 4.58632 69.7114 4.0453C68.2056 3.40508 65.3562 2.41319 63.6519 1.9443C58.0974 0.393356 52.633 -0.192757 46.6727 0.131859ZM31.1993 5.89381C31.1993 5.94791 31.1091 6.02004 31.0009 6.06513C30.8837 6.11021 30.6402 6.25449 30.4509 6.38073C30.2615 6.50697 30.0992 6.61517 30.0812 6.61517C29.9639 6.61517 27.8449 7.88659 26.6907 8.64403C19.1163 13.6125 13.0839 19.7261 8.6835 26.9037C7.92606 28.1481 6.41118 31.0696 5.48242 33.0805C4.80613 34.5593 5.18485 32.7649 6.02344 30.5557C7.79982 25.8758 9.82867 22.296 13.0839 18.1571C14.4454 16.4168 16.844 14.0363 18.8458 12.4312C22.1821 9.77117 25.789 7.75134 30.4328 5.94791C30.8566 5.7856 31.1993 5.76756 31.1993 5.89381ZM32.5518 9.00471C32.4887 9.07685 32.2092 9.26621 31.9297 9.42852C25.9152 12.828 20.6943 17.1562 16.3931 22.314C13.4716 25.8127 10.9919 29.8072 9.4229 33.5313C9.23354 33.9732 8.9991 34.424 8.90893 34.5232C8.72858 34.7035 8.72858 34.7035 8.7917 34.2978C8.91794 33.5223 9.90081 30.8172 10.6402 29.2031C11.2353 27.9046 11.7854 26.7775 12.083 26.2725C12.2723 25.9479 12.5068 25.5421 12.606 25.3708C15.5816 20.1409 19.9549 15.5421 24.9053 12.4763C26.844 11.259 29.3327 10.0327 31.56 9.17604C32.4256 8.84241 32.7322 8.78831 32.5518 9.00471ZM34.4454 12.1337C34.4454 12.1968 34.2561 12.332 34.0126 12.4222C32.128 13.1796 30.7214 13.9371 28.6294 15.3257C24.8693 17.8235 21.2804 21.3311 18.0613 25.6413C16.2489 28.0669 14.4004 31.1147 12.8855 34.1625C12.2904 35.3528 11.7583 36.3627 11.7042 36.4168C11.5509 36.5611 11.6952 35.6684 11.9477 34.9109C13.5077 30.1499 15.5906 26.0561 18.1154 22.7558C22.0739 17.589 26.9071 14.1805 32.8224 12.3771C34.0126 12.0164 34.4454 11.9533 34.4454 12.1337ZM34.9414 15.5872C34.7971 15.7044 34.6438 15.8036 34.6078 15.8127C34.5807 15.8127 34.193 16.02 33.7511 16.2725C33.3183 16.525 32.8133 16.8136 32.642 16.9127C31.6592 17.4628 29.3688 19.0588 28.1425 20.0327C23.9405 23.369 20.2615 27.6882 17.7006 32.2689C17.0243 33.4862 15.9964 35.6774 15.6808 36.5791C15.6177 36.7685 15.4824 36.9849 15.3832 37.075C15.2209 37.2283 15.2119 37.2193 15.275 36.7775C15.5005 35.1814 16.4563 32.3411 17.5924 29.8884C18.9811 26.9218 21.8215 23.2608 24.3823 21.1598C24.6709 20.9254 25.1217 20.5466 25.3742 20.3392C25.78 19.9876 26.6997 19.3654 28.3499 18.2924C29.9279 17.2734 34.1839 15.3979 34.9865 15.3708L35.2119 15.3618L34.9414 15.5872ZM37.2408 18.1391C37.2408 18.2833 36.9342 18.4817 36.1587 18.8334C33.9134 19.8613 30.6853 22.0345 28.5843 23.9191C24.0307 28.0038 20.9107 32.6386 19.0352 38.103C18.8368 38.6891 18.6204 39.2572 18.5663 39.3654L18.4581 39.5728L18.3859 39.3203C18.3048 39.0318 18.5482 37.5349 18.9089 36.1012C19.7475 32.7108 21.5149 29.2392 23.7241 26.6693C26.9522 22.9001 30.8386 20.3302 36.4292 18.2653C36.9702 18.0669 37.2408 18.0219 37.2408 18.1391ZM37.872 21.6197C37.872 21.6828 36.9071 22.2779 36.2489 22.6206C34.4635 23.5403 31.8936 25.452 29.9369 27.3095C26.7989 30.2942 24.3192 33.892 22.7322 37.7694C22.4256 38.5088 22.119 39.176 22.0469 39.2482C21.5059 39.7892 22.5609 35.9479 23.5798 33.6215C25.5546 29.167 28.5212 25.8668 32.633 23.5764C33.5618 23.0534 35.4193 22.2599 36.5194 21.8992C36.7899 21.809 37.0965 21.7099 37.1957 21.6648C37.376 21.5926 37.872 21.5566 37.872 21.6197ZM39.8106 24.4691C39.8106 24.5412 39.5762 24.7576 39.2967 24.947C38.8097 25.2716 36.6546 26.3897 35.798 26.7685C34.211 27.4628 31.9748 29.5548 30.1533 32.0435C29.5672 32.846 28.3228 34.8027 27.6826 35.9209C27.2768 36.6512 25.9693 39.2662 25.5726 40.1769C25.3832 40.6188 25.1849 40.9704 25.1488 40.9704C24.9324 40.9704 25.1758 39.176 25.5996 37.6792C26.5645 34.2617 28.7015 31.0696 31.6592 28.653C32.8404 27.6882 33.2281 27.4087 34.5356 26.6332C35.7439 25.9209 37.1776 25.2265 38.413 24.7486C38.8368 24.5863 39.2606 24.415 39.3598 24.3789C39.6123 24.2707 39.8106 24.3068 39.8106 24.4691ZM40.6492 27.8145C40.6312 27.8686 40.2074 28.1391 39.7205 28.4096C37.7277 29.5097 35.9603 30.8262 34.3463 32.4132C31.4968 35.2085 29.7565 38.1391 28.7647 41.764C28.6294 42.2779 28.4851 42.7198 28.4491 42.7558C28.1876 43.0264 28.1876 41.0696 28.4581 39.7261C28.8278 37.9136 29.3327 36.4709 30.0361 35.2446C31.9387 31.9173 34.7971 29.7081 39.3147 28.0669C40.2795 27.7153 40.7124 27.6341 40.6492 27.8145ZM41.7493 31.0246C41.7493 31.0696 41.3526 31.3221 40.8656 31.5926C39.8106 32.1787 39.0171 32.7108 38.2326 33.351C37.394 34.0453 35.7349 35.7585 35.1037 36.5971C34.5627 37.3185 33.6249 38.8334 33.3454 39.4375C32.9847 40.213 32.3715 41.8 32.1551 42.5214C31.9026 43.3329 31.7223 43.6215 31.6141 43.351C31.5149 43.0985 31.56 41.9623 31.7042 40.9795C32.3264 36.7324 35.284 33.4592 40.4418 31.3131C41.2083 30.9975 41.7493 30.8803 41.7493 31.0246ZM51.7583 31.9533C55.5816 32.5034 58.7196 34.0994 61.3706 36.8316C63.4536 38.9867 64.7971 41.4574 65.4644 44.3519C66.2669 47.8776 65.8251 51.5836 64.229 54.8117C62.0379 59.2031 58.0793 62.332 53.2462 63.4682C50.8025 64.0363 48.4941 64.0723 46.0775 63.5674C44.3372 63.1977 42.3445 62.4402 40.9829 61.6197C37.5924 59.5728 35.0766 56.4889 33.8233 52.846C33.174 50.9524 32.8945 48.626 33.0839 46.5881C33.2462 44.7847 33.4265 43.9551 33.9675 42.4583C35.2029 39.0769 37.6105 36.1463 40.6673 34.2707C43.0027 32.855 44.8693 32.2238 47.9261 31.8361C48.7286 31.7279 50.6402 31.791 51.7583 31.9533ZM67.0965 55.8126C66.6456 57.7964 65.5636 60.2761 64.5086 61.7189C64.2741 62.0345 63.7511 62.6386 63.3544 63.0444C61.7583 64.6945 59.991 65.6684 57.7006 66.1733C56.0595 66.534 55.3021 66.4348 56.33 65.984C57.6105 65.4159 58.9089 64.7306 59.8106 64.1355C62.8674 62.0976 65.266 59.2301 66.5825 56.0291C67.0153 54.9921 67.0965 54.8298 67.1867 54.92C67.2408 54.9741 67.2047 55.3077 67.0965 55.8126ZM70.6673 55.7044C70.6402 55.7676 70.5951 56.02 70.5591 56.2635C70.3787 57.571 69.6573 59.8072 68.8638 61.5566C68.404 62.5484 67.5113 63.8649 66.6005 64.8839C64.8512 66.8406 62.5969 68.2473 59.9008 69.0498C58.7827 69.3834 57.2858 69.672 57.1235 69.5728C56.9161 69.4646 57.0784 69.3474 57.9982 68.9777C61.1362 67.7153 63.8864 65.6954 66.1316 63.0173C67.9441 60.8622 69.1614 58.7612 70.3427 55.7766C70.3877 55.6684 70.4869 55.5782 70.5681 55.5782C70.6582 55.5782 70.6943 55.6323 70.6673 55.7044ZM74.211 56.0922C74.211 56.6512 73.4716 59.0588 72.7953 60.718C70.5951 66.1463 66.6005 70.0868 61.4968 71.8812C58.927 72.7829 58.5032 72.7198 60.2525 71.6918C62.2362 70.5286 64.6077 68.8785 66.2308 67.5439C67.2047 66.7504 69.1073 64.9019 69.7655 64.1355C71.073 62.5845 71.9297 61.1237 72.4256 59.5638C73.1019 57.4447 73.7692 55.9389 74.0397 55.9389C74.1389 55.9389 74.211 56.002 74.211 56.0922ZM77.2227 57.9677C77.1957 58.112 77.1416 58.4006 77.0965 58.5989C77.0514 58.7973 76.9522 59.2662 76.8711 59.6359C76.4923 61.3131 76.0234 62.6116 75.1488 64.3609C73.3003 68.0669 70.4689 70.8983 66.1407 73.351C65.3922 73.7748 63.0027 74.8388 62.2633 75.0732C61.7133 75.2536 61.4067 75.3077 61.3616 75.2356C61.2985 75.1273 61.4608 75.0191 62.7953 74.2888C64.0126 73.6215 64.4184 73.369 65.6898 72.4763C67.5113 71.2139 70.1623 68.7342 71.6952 66.8947C72.5338 65.8758 73.8503 64.0002 74.5086 62.8821C75.1488 61.782 76.1948 59.681 76.5014 58.8695C76.9252 57.7603 77.1055 57.4267 77.1867 57.562C77.2317 57.6341 77.2408 57.8145 77.2227 57.9677ZM80.8837 57.7333C80.8837 57.8956 80.4328 59.8072 80.2164 60.5376C78.5302 66.3356 75.3562 71.1598 71.1001 74.3789C68.972 75.984 66.1948 77.4538 63.9766 78.1481C62.8765 78.4907 61.9116 78.7522 61.7403 78.7522C61.56 78.7522 61.56 78.7432 61.7674 78.5268C61.8846 78.4006 62.0198 78.3014 62.0649 78.3014C62.2633 78.3014 64.4995 77.1652 65.6267 76.4889C66.7178 75.8307 67.3129 75.4339 69.0983 74.1264C69.7836 73.6305 71.3977 72.1697 72.4797 71.0877C76.0505 67.4989 78.9811 62.6657 80.5681 57.7603C80.6132 57.6341 80.8837 57.6071 80.8837 57.7333ZM83.8142 59.9245C83.5798 61.7459 82.3354 65.2806 81.0911 67.6612C77.7908 74.0182 72.4076 78.644 65.3021 81.241C64.8332 81.4123 64.4184 81.5295 64.3733 81.4934C64.2471 81.4213 64.5717 81.1869 65.6447 80.6007C69.7295 78.3374 73.9675 74.7216 77.1325 70.7901C79.495 67.8595 81.6141 64.3519 82.8945 61.259C83.4716 59.8704 83.679 59.4556 83.7782 59.4556C83.8413 59.4556 83.8593 59.6089 83.8142 59.9245ZM87.3309 60.195C87.2768 60.7901 87.1957 61.1959 86.835 62.8821C85.9874 66.8135 83.5888 71.3852 80.6582 74.6494C80.2525 75.0913 79.8106 75.5962 79.6573 75.7676C79.3959 76.0741 77.6555 77.6702 76.853 78.3555C75.78 79.2752 72.2182 81.8181 72.0198 81.8181C71.9838 81.8181 71.587 82.0435 71.1271 82.323C70.6673 82.6025 69.3959 83.2608 68.3048 83.7928C66.4202 84.7126 65.6087 85.0552 65.5095 84.965C65.4554 84.9019 66.1948 84.3609 67.0243 83.8559C68.4941 82.9722 71.2083 81.0336 72.9035 79.663C79.8106 74.0723 85.0316 66.8947 86.835 60.4925C86.9432 60.0958 87.0514 59.7171 87.0694 59.6539C87.0875 59.5998 87.1686 59.5457 87.2498 59.5457C87.376 59.5457 87.385 59.6269 87.3309 60.195ZM90.8025 61.0877C90.8025 61.3762 90.2435 63.387 89.7746 64.7757C88.8819 67.4357 88.0162 69.3293 86.5735 71.7369C85.0045 74.3609 83.2462 76.5611 80.8296 78.9416C78.927 80.7991 77.5473 81.9353 75.4644 83.36C73.0117 85.0462 68.5753 87.4087 67.8629 87.4087C67.7187 87.4087 67.7187 87.3906 67.908 87.2464C68.0252 87.1562 68.5933 86.8045 69.1614 86.4619C72.9486 84.2256 75.9784 81.8 79.3959 78.2924C81.4878 76.1373 83.4085 73.7207 85.3381 70.8172C87.2949 67.8866 88.6114 65.497 89.8197 62.7108C90.523 61.0787 90.6132 60.8983 90.7123 60.8983C90.7574 60.8983 90.8025 60.9795 90.8025 61.0877ZM94.0938 62.1787C93.9134 63.3329 92.7863 67.0119 92.0649 68.7883C90.8386 71.809 88.6655 75.497 86.6186 78.0309C82.3715 83.2879 76.9793 87.4267 70.4869 90.4204C69.8197 90.727 69.2696 90.8442 69.3778 90.6639C69.4049 90.6188 69.7655 90.3843 70.1803 90.1499C72.7502 88.6621 75.3742 86.8135 77.7277 84.8027C79.2155 83.5403 82.0289 80.736 83.3904 79.176C87.3129 74.6404 90.9738 68.8424 93.0478 63.874C93.7872 62.1066 93.9405 61.809 94.1208 61.8C94.1389 61.8 94.1298 61.9714 94.0938 62.1787Z" fill="#2F2120"/>
<path d="M41.4766 55.9149C40.0948 56.552 38.6204 56.9574 37.1109 57.1153C37.0112 57.1259 36.9107 57.1067 36.8216 57.0601C36.7324 57.0136 36.6586 56.9417 36.609 56.8532C35.4905 54.8507 35.1228 52.3593 35.5769 49.6255C36.1562 46.0975 38.0398 42.5656 40.8819 39.6785C43.724 36.7913 47.2034 34.8779 50.6738 34.2895C53.614 33.7928 56.269 34.2895 58.3229 35.6787C58.407 35.7347 58.473 35.8145 58.5131 35.9083C58.5531 36.002 58.5653 36.1055 58.5481 36.2062C58.531 36.3068 58.4853 36.4002 58.4166 36.4748C58.348 36.5494 58.2593 36.6021 58.1616 36.6262C57.1948 36.8603 56.2522 37.1877 55.3466 37.6039C52.538 38.9013 48.9477 41.6744 47.7969 47.5247C47.0086 51.4931 44.8838 54.316 41.4766 55.9149ZM60.9947 38.6038C60.9452 38.5156 60.8716 38.4438 60.7827 38.3973C60.6939 38.3508 60.5936 38.3314 60.4942 38.3417C58.984 38.4987 57.5091 38.9041 56.1271 39.5422C52.7199 41.141 50.5951 43.964 49.8133 47.9297C48.6613 53.78 45.0722 56.5531 42.2636 57.8505C41.358 58.2667 40.4154 58.5941 39.4486 58.8282C39.3487 58.8511 39.2577 58.9037 39.1873 58.9792C39.1169 59.0548 39.0703 59.1499 39.0533 59.2525C39.0362 59.3551 39.0497 59.4605 39.0918 59.5553C39.1339 59.6501 39.2029 59.73 39.2899 59.7849C40.8212 60.8229 42.6855 61.3576 44.7535 61.3576C45.485 61.3554 46.2151 61.2923 46.9364 61.1689C50.4081 60.5804 53.8862 58.667 56.7283 55.7799C59.5704 52.8927 61.454 49.3582 62.0333 45.8328C62.4771 43.099 62.1133 40.6063 60.9947 38.6038Z" fill="#2F2120"/>
</svg>
