<svg width="100" height="99" viewBox="0 0 100 99" fill="none" xmlns="http://www.w3.org/2000/svg">
<path d="M47.4761 31.9012C46.975 31.966 46.1071 32.1604 45.5692 32.3289C44.3224 32.7177 40.8753 34.6359 39.6896 35.595C37.526 37.3448 35.5825 40.1573 34.5924 42.9439C33.8834 44.9528 33.7245 45.9249 33.7489 48.1542C33.7734 50.4742 34.0056 51.9906 34.6779 54.3884C34.9957 55.542 35.2035 56.0215 35.6925 56.7214C36.0225 57.2139 36.5726 58.0693 36.9026 58.6267C37.6361 59.8709 39.6041 61.7243 41.3521 62.8519C42.2077 63.3963 42.5989 63.5648 42.55 63.3445C42.5255 63.176 42.5989 63.163 43.1734 63.3185C43.3812 63.3704 43.5645 63.4611 43.5645 63.5259C43.5645 63.5907 43.7357 63.6426 43.9313 63.6426C44.1391 63.6426 44.298 63.6944 44.298 63.7592C44.298 63.811 44.5913 63.9018 44.9458 63.9407C45.3248 63.9925 45.6426 64.1091 45.7281 64.2388C45.8259 64.3813 45.9482 64.4202 46.0949 64.3554C46.2171 64.2906 46.3393 64.2517 46.376 64.2517C46.4127 64.2647 46.9627 64.3036 47.5984 64.3554C48.234 64.4072 48.9307 64.4591 49.1263 64.485C50.0064 64.5757 52.8301 64.2906 53.6491 64.0184C54.1258 63.8759 54.5903 63.7333 54.7126 63.7203C54.8226 63.7074 54.9815 63.6296 55.0793 63.5648C55.1648 63.487 55.4826 63.3574 55.7882 63.2667C56.0938 63.176 56.7295 62.9038 57.2062 62.6575C57.6829 62.4113 58.1596 62.2168 58.2574 62.2168C58.3552 62.2168 58.5386 62.1002 58.6608 61.9576C58.783 61.8151 58.9786 61.6984 59.0886 61.6984C59.1986 61.6984 59.3942 61.5947 59.5287 61.4651C59.6509 61.3355 59.9443 61.1152 60.1643 60.9726C60.3966 60.843 60.8122 60.493 61.0933 60.2079C62.2057 59.0933 62.9024 58.4452 62.9635 58.4971C63.0124 58.5619 62.8046 58.8729 62.389 59.3525C62.2912 59.4691 62.0468 59.7543 61.839 60.0005L61.4723 60.4412L62.0468 60.0264C62.6702 59.5858 63.8192 58.1601 64.1492 57.4213C64.3448 56.9806 64.3448 56.9806 64.137 57.2787C63.7214 57.862 63.2325 58.3545 63.1591 58.2767C63.1102 58.2378 63.1958 58.0305 63.3425 57.836C63.4892 57.6416 63.7459 57.2787 63.917 57.0325C64.736 55.7882 64.9316 55.542 65.0782 55.5808C65.2127 55.6197 65.2127 55.5808 65.0782 55.4123C64.9438 55.2309 64.956 55.192 65.176 55.1272C65.3227 55.0883 65.4083 55.0106 65.3716 54.9457C65.3349 54.8809 65.3716 54.8291 65.445 54.8291C65.6772 54.8291 66.0195 53.7793 66.1173 52.8201C66.1661 52.3147 66.2395 51.8481 66.2884 51.7833C66.6062 51.3426 66.814 49.865 66.8262 48.0894C66.8385 45.8083 66.6306 44.7455 65.6894 42.4384C64.4915 39.5092 64.0881 38.8742 62.2912 36.917C60.91 35.4136 60.4577 35.0118 59.4065 34.3508C58.7097 33.9231 57.8296 33.4305 57.4262 33.2621C57.0351 33.0936 56.485 32.8473 56.2161 32.7307C55.9471 32.601 55.2015 32.3548 54.5659 32.1863C53.5635 31.9141 53.0624 31.8623 50.8988 31.8234C49.5175 31.7975 47.9773 31.8363 47.4761 31.9012ZM49.6397 34.1823C50.0676 34.8563 50.1776 35.3099 50.2509 36.6449C50.2876 37.3707 50.3609 37.941 50.4098 37.915C50.4587 37.8891 50.5321 37.2281 50.5809 36.4634C50.6543 35.2451 50.7032 35.0118 50.9721 34.6359C51.4366 34.0008 51.8278 33.8842 52.4512 34.2082C53.1235 34.5582 53.4657 35.2321 53.4657 36.2301C53.4657 36.9819 53.0746 37.9928 52.1456 39.6259C51.7422 40.3387 51.0943 41.9459 50.9477 42.5421C50.911 42.7495 50.8376 42.8791 50.7887 42.8532C50.7521 42.8272 50.7276 43.0735 50.7521 43.3975C50.801 44.253 50.5443 43.7993 50.4465 42.8791C50.3731 42.1014 49.6764 40.7405 48.9552 39.924C47.8306 38.6797 46.9872 36.917 46.9872 35.8413C46.9872 34.9729 47.5861 34.1564 48.3807 33.949C49.1263 33.7675 49.4075 33.8194 49.6397 34.1823ZM54.0769 34.0138C54.0769 33.9749 54.2358 34.0656 54.4314 34.2082C54.627 34.3637 54.9204 34.4674 55.0793 34.4545C55.446 34.4285 56.3994 34.8692 56.3994 35.0896C56.3994 35.1803 56.4728 35.2192 56.5828 35.1803C56.6806 35.1284 56.8395 35.1544 56.925 35.2321C56.9984 35.2969 57.2062 35.4006 57.3773 35.4525C57.5485 35.5043 57.8418 35.6858 58.0252 35.8542C58.2208 36.0227 58.453 36.1653 58.5386 36.1653C58.6364 36.1653 58.7586 36.2431 58.8075 36.3338C58.8564 36.4245 59.1009 36.6449 59.3331 36.8134C60.1888 37.4225 62.2668 39.6518 62.2668 39.9629C62.2668 40.0147 62.4868 40.3517 62.7557 40.7146C63.0247 41.0775 63.2447 41.4663 63.2447 41.596C63.2447 41.7126 63.3058 41.8811 63.3914 41.9718C63.587 42.1792 64.0637 43.6697 64.357 44.9788C64.846 47.1692 64.8215 50.6168 64.2959 51.6796C64.1859 51.9129 64.1003 52.1591 64.1003 52.2369C64.1003 52.4443 63.5992 53.533 63.1591 54.2459C61.9979 56.1511 61.13 57.2658 59.9565 58.3674C58.8686 59.3784 58.8564 59.3914 58.7219 59.3006C58.6608 59.2617 58.5752 59.3136 58.5141 59.4043C58.3797 59.6506 57.3406 60.2079 56.2772 60.5967C55.776 60.7911 54.9204 61.1022 54.3825 61.3096C51.5833 62.3724 49.0774 62.3983 44.7747 61.3614C43.9313 61.167 42.6355 60.5838 42.2199 60.2209C42.1222 60.1431 41.8899 59.9876 41.7065 59.8839C41.5232 59.7931 41.2543 59.6117 41.132 59.4691C40.9976 59.3395 40.8387 59.2358 40.7775 59.2358C40.6309 59.2358 39.2863 57.7583 38.7117 56.9677C37.8072 55.7234 37.2205 54.7384 37.0249 54.1681C36.9149 53.857 36.7804 53.5071 36.7315 53.4034C36.6337 53.209 36.4626 52.4832 36.4504 52.2758C36.4504 52.211 36.4137 52.1073 36.3526 52.0425C36.0592 51.6277 35.7169 47.4284 35.9736 47.2599C36.0714 47.1951 36.1081 47.4413 36.1081 48.1153C36.1081 48.6338 36.1937 49.554 36.2915 50.1632C36.4993 51.4852 37.2571 53.7793 37.5627 54.0514C37.5994 54.0903 37.7705 54.4014 37.9294 54.7384C38.0883 55.0754 38.3328 55.4253 38.455 55.4901C38.7484 55.6586 38.724 55.529 38.2961 54.7643C38.1006 54.4014 37.905 54.0255 37.8683 53.9218C36.9882 51.6796 36.5726 49.7095 36.6093 47.9598C36.6215 47.2081 36.6704 46.4174 36.7193 46.2101C36.7682 45.9897 36.8782 45.4972 36.9638 45.1084C37.2938 43.6049 39.1274 40.1962 39.6285 40.1832C39.7019 40.1832 39.7752 40.1314 39.7752 40.0666C39.7752 39.8981 41.242 38.3687 41.4132 38.3687C41.4621 38.3687 41.5721 38.2909 41.6699 38.2002C41.9755 37.9021 42.3422 37.591 42.4155 37.591C42.4522 37.591 42.7089 37.4225 42.99 37.2151C43.589 36.7874 44.3469 36.4245 44.6769 36.4245C44.9825 36.4245 45.117 36.9948 44.9092 37.4096C44.7747 37.6558 44.6525 37.7206 44.2735 37.7206C43.8946 37.7206 43.589 37.8762 42.7945 38.4464C41.132 39.6518 39.8119 41.3886 39.054 43.3716C38.4673 44.888 38.4184 45.0047 38.5039 44.3955C38.5406 44.1104 38.6262 43.7993 38.6995 43.7086C38.7729 43.6308 38.7973 43.5531 38.7606 43.5531C38.724 43.5531 38.8584 43.0605 39.054 42.4514C39.2618 41.8422 39.384 41.2849 39.3352 41.2071C39.2007 40.9738 38.5406 41.8422 38.0761 42.8532C37.5016 44.1233 37.4894 44.1622 37.2816 45.238C36.8782 47.2988 36.9882 49.0096 37.6605 51.0704C37.9905 52.1203 39.0173 54.2718 39.4941 54.8939C40.2519 55.9049 40.7531 56.6436 40.7531 56.7732C40.7531 56.838 40.8142 56.9029 40.8876 56.9029C40.9609 56.9029 41.4254 57.2528 41.9266 57.6675C42.4155 58.0953 42.9289 58.4711 43.0756 58.523C43.2101 58.5619 43.3201 58.6526 43.3201 58.7174C43.3201 58.8081 43.7846 59.0155 45.5203 59.6765C45.7526 59.7672 46.4738 59.9746 47.1094 60.1431C47.7451 60.3116 48.3318 60.4801 48.3929 60.5319C48.4662 60.5838 49.0897 60.6356 49.7986 60.6486C50.5076 60.6615 51.131 60.7263 51.1921 60.7911C51.2655 60.8689 51.3877 60.8559 51.4977 60.7393C51.6689 60.5838 52.9034 60.1431 54.847 59.5598C55.776 59.2747 57.7074 58.2249 58.6364 57.4991C60.91 55.7364 62.3035 53.6367 63.4036 50.3576C63.6358 49.6706 63.6603 49.2948 63.6725 47.2469C63.6725 44.8492 63.6114 44.4085 63.0247 42.6458C62.6702 41.6219 61.5334 39.7814 60.6044 38.7575C59.5654 37.604 57.8051 36.2431 56.2283 35.3358C54.957 34.61 54.5659 34.597 54.5659 35.2969C54.5659 35.5432 54.6637 35.8413 54.7981 35.9839C55.0304 36.256 55.2993 36.7356 55.2993 36.8782C55.2993 36.917 55.2015 36.93 55.0915 36.8911C54.7614 36.7874 54.6514 36.917 54.1992 37.8891C53.7958 38.7705 53.478 39.1982 53.7102 38.5631C54.2114 37.1503 54.138 34.9599 53.5635 34.273C53.2946 33.949 53.3924 33.8064 53.7836 33.9619C53.9425 34.0268 54.0769 34.0527 54.0769 34.0138ZM46.156 35.0507C46.1315 35.1673 46.1682 35.258 46.2293 35.258C46.2782 35.258 46.3271 35.4784 46.3149 35.7376C46.3149 36.0098 46.3516 36.4893 46.4004 36.8134C46.4738 37.2151 46.4616 37.3318 46.376 37.1892C46.3149 37.0726 46.2049 36.606 46.1437 36.1523C46.0704 35.6987 45.9848 35.1803 45.9359 35.0118C45.8748 34.7785 45.8871 34.7266 46.0215 34.7655C46.1193 34.8044 46.1804 34.9211 46.156 35.0507ZM57.4384 36.8134C57.4751 36.8782 57.4873 36.943 57.4507 36.943C57.414 36.943 57.3529 36.8782 57.3162 36.8134C57.2795 36.7356 57.2673 36.6838 57.304 36.6838C57.3406 36.6838 57.4018 36.7356 57.4384 36.8134ZM58.2941 37.3318C58.4163 37.4744 58.5875 37.591 58.673 37.591C58.7586 37.591 59.0153 37.7854 59.2475 38.0058C59.4676 38.2391 59.8465 38.6149 60.0788 38.8353C61.6312 40.3128 62.6335 42.1792 63.0736 44.4344C63.3547 45.8212 63.3547 48.4393 63.098 49.4762C62.7313 50.889 61.8023 52.9627 61.5578 52.9109C61.46 52.8979 61.2156 53.0405 60.9955 53.2349C60.7755 53.4293 60.3843 53.7663 60.1276 53.9866C59.8587 54.194 59.5165 54.531 59.3576 54.7254C58.9419 55.205 57.5973 56.1382 56.6194 56.6307C55.446 57.201 55.3849 57.1232 56.4239 56.3974C57.6462 55.529 59.0031 54.2718 59.8832 53.196C60.8 52.0943 61.1789 51.4592 61.5945 50.4094C61.7778 49.9558 61.9734 49.5151 62.0345 49.4373C62.0957 49.3596 62.2301 48.6856 62.3401 47.9468C62.5357 46.547 62.499 44.6677 62.2423 43.6179C61.9245 42.2829 60.8 40.1184 59.9198 39.1463C59.382 38.5631 58.3674 37.591 57.9763 37.3059C57.7685 37.1503 57.7318 37.0855 57.8785 37.0855C57.9885 37.0726 58.1719 37.1892 58.2941 37.3318ZM46.706 38.0835C46.8894 38.2779 46.9261 38.8871 46.7549 38.8871C46.6816 38.8871 46.5594 38.7705 46.4616 38.6279C46.3638 38.4853 46.1437 38.3557 45.9726 38.3428C45.5326 38.3039 45.557 38.1613 46.046 37.8502C46.3271 37.6688 46.4493 37.6429 46.486 37.7465C46.5105 37.8373 46.6082 37.9928 46.706 38.0835ZM55.4826 38.1872C55.8249 38.3298 56.6194 39.7555 56.8884 40.7276C57.304 42.1662 57.3284 42.8272 57.0106 44.0067C56.6439 45.3935 55.9349 46.8192 55.4704 47.0914C55.3726 47.1432 55.2993 47.2858 55.2993 47.3765C55.2993 47.4802 55.2504 47.571 55.1893 47.571C55.1404 47.571 54.847 47.8172 54.5414 48.1153C54.2481 48.4264 53.7958 48.8411 53.5391 49.0615C53.2824 49.2688 52.9034 49.6058 52.6956 49.8002C52.4878 50.0076 52.28 50.1632 52.2189 50.1632C52.17 50.1632 52.1211 50.2539 52.1211 50.3576C52.1211 50.4613 52.0722 50.552 52.0111 50.552C51.7544 50.552 51.0454 52.211 50.8376 53.3256C50.7399 53.8311 50.6665 53.7015 50.6543 52.9498C50.6421 52.5869 50.5687 52.1203 50.4954 51.9129C50.3731 51.5111 49.5542 50.6168 48.8696 50.1113C46.1315 48.1153 45.3614 47.2469 44.738 45.4713C44.1757 43.903 44.2124 41.9589 44.7991 41.0646C44.9336 40.8831 45.0314 40.6628 45.0314 40.585C45.0314 40.5072 45.1414 40.3906 45.2759 40.3128C45.3981 40.2351 45.4837 40.1054 45.447 40.0018C45.3492 39.7425 45.7159 39.4963 46.0704 39.587C46.2538 39.6388 46.3516 39.7296 46.3027 39.8073C46.266 39.8851 46.1193 39.924 45.9971 39.8851C45.8626 39.8462 45.7648 39.8721 45.7648 39.937C45.7648 40.0018 45.8382 40.0536 45.9237 40.0536C45.9971 40.0536 46.156 40.1054 46.2538 40.1832C46.4004 40.2739 46.376 40.3647 46.0826 40.6628C45.2636 41.5311 44.9092 43.7864 45.4592 44.6159C45.557 44.7844 45.6426 45.0047 45.6426 45.1343C45.6426 45.3676 45.8504 45.575 45.9726 45.4454C46.0093 45.4065 45.9971 45.3028 45.9237 45.2121C45.3981 44.4603 45.4103 42.7495 45.9482 41.8811C46.1437 41.583 46.3516 41.3627 46.4127 41.3886C46.486 41.4145 46.5227 41.8681 46.5105 42.4643C46.486 43.5919 46.7183 44.4085 47.2928 45.1343C47.4639 45.3417 47.5984 45.6009 47.5984 45.6916C47.5984 45.912 48.0873 46.2878 48.234 46.1971C48.2951 46.1582 48.2096 46.0156 48.0506 45.886C47.7206 45.6139 47.0361 44.1881 46.8772 43.4364C46.8161 43.1124 46.8161 42.6847 46.8894 42.3218C46.9994 41.7515 47.0239 41.7256 47.3906 41.7644C47.7084 41.7904 47.7939 41.8681 47.8184 42.1274C47.8795 42.5939 48.0751 42.7624 48.2218 42.4773C48.4051 42.1403 48.6252 42.2051 49.1508 42.7624C49.5542 43.1902 49.6519 43.4105 49.7742 44.1104C49.8597 44.564 49.9209 45.2509 49.9209 45.6268C49.9209 46.2101 50.1531 47.5969 50.5198 49.2559C50.6054 49.6577 50.6298 49.5929 50.691 48.6726C50.7399 48.1024 50.8376 47.3117 50.911 46.9229C50.9843 46.5341 51.0699 45.9768 51.1066 45.6916C51.2533 44.3826 52.1823 42.3866 53.1113 41.3886C53.7224 40.7276 53.9791 40.7924 54.1869 41.6737C54.3336 42.2699 54.5659 42.4643 54.5659 41.9848C54.5659 41.57 54.0891 40.572 53.8936 40.572C53.588 40.572 53.6858 40.1962 54.1503 39.587C54.6759 38.913 54.9815 38.8612 55.5438 39.3537C55.7516 39.5481 55.9594 39.6648 55.996 39.6259C56.1183 39.4963 55.4215 38.6279 55.2015 38.6279C55.0915 38.6279 54.9081 38.5631 54.8103 38.4983C54.6514 38.3816 54.6514 38.3557 54.8103 38.2391C55.0304 38.0965 55.2015 38.0835 55.4826 38.1872ZM58.2574 38.6538C59.712 39.4574 61.1667 41.6867 61.6067 43.7475C61.9734 45.4713 61.729 48.2579 61.0933 49.7743C60.7511 50.5779 60.5066 51.0704 60.421 51.0704C60.3721 51.0704 60.2743 51.2389 60.1888 51.4463C60.0299 51.861 59.3698 52.5869 59.2598 52.4702C59.1864 52.3795 59.3942 51.9129 60.1643 50.4224C60.8122 49.1652 61.0933 47.882 61.0933 46.1453C61.0933 45.0047 61.0322 44.6029 60.7511 43.6956C60.3355 42.3347 60.091 41.8293 59.5165 41.1164C59.1375 40.6498 58.9908 40.572 58.6853 40.598C58.3063 40.6368 58.2941 40.6109 58.0985 39.8592C57.8907 39.1204 57.8174 38.4983 57.9152 38.4983C57.9396 38.4983 58.0985 38.576 58.2574 38.6538ZM47.1705 39.1463C47.2072 39.2111 47.195 39.2759 47.1216 39.2759C47.0605 39.2759 46.9627 39.2111 46.9261 39.1463C46.8894 39.0686 46.9016 39.0167 46.975 39.0167C47.0361 39.0167 47.1339 39.0686 47.1705 39.1463ZM46.8649 40.0536C47.0116 40.1573 46.9994 40.1832 46.7794 40.1832C46.6205 40.1832 46.4982 40.1184 46.4982 40.0536C46.4982 39.8851 46.6327 39.8851 46.8649 40.0536ZM41.4865 41.4145C41.4865 41.4404 41.2665 41.9977 40.9976 42.6588C40.3864 44.1233 40.1419 45.3028 40.1419 46.7803C40.1419 49.0874 40.7409 51.1093 41.8777 52.6517C42.2688 53.1831 42.0855 53.209 41.5965 52.6905C41.1443 52.211 40.7531 52.0943 40.7531 52.4702C40.7531 52.7553 41.951 54.4273 42.6111 55.0624C42.88 55.3216 43.2956 55.6716 43.5401 55.8271C43.7846 55.9826 44.029 56.203 44.0779 56.3066C44.1391 56.4233 44.2369 56.514 44.3102 56.514C44.5058 56.514 46.6082 57.6027 46.6205 57.7194C46.6205 57.7712 46.4738 57.7324 46.2904 57.6287C46.0949 57.5379 45.777 57.4083 45.557 57.3694C45.3492 57.3176 45.1047 57.188 45.0192 57.0843C44.9458 56.9806 44.8114 56.9029 44.738 56.9029C44.518 56.9029 42.0977 55.1272 42.0977 54.9587C42.0977 54.9198 41.8655 54.6347 41.5965 54.3107C40.9242 53.533 40.5086 52.859 40.0319 51.8481C39.653 51.0056 39.1274 49.0485 39.2374 48.8541C39.2618 48.8022 39.2374 48.7245 39.164 48.6726C39.0907 48.6338 39.0418 48.0505 39.0418 47.3377C39.054 45.3287 39.7385 43.255 40.8509 41.907C41.2543 41.4145 41.4865 41.233 41.4865 41.4145ZM59.6143 42.4773C60.6777 44.1104 60.9589 46.6378 60.3232 48.7245C60.0054 49.7484 59.4676 50.9408 59.3209 50.9408C59.2598 50.9408 59.2109 50.9927 59.2109 51.0575C59.2109 51.3167 57.2306 53.4164 57.0473 53.3515C56.9617 53.3127 56.925 53.3645 56.9739 53.4812C57.0106 53.5978 56.9617 53.6626 56.815 53.6626C56.6806 53.6626 56.4116 53.8311 56.2038 54.0385C55.7882 54.4532 55.3604 54.6476 55.2504 54.4532C55.2137 54.3884 55.3115 54.2977 55.4826 54.2588C55.6538 54.207 55.7882 54.1162 55.7882 54.0514C55.7882 53.9737 55.8738 53.9218 55.9716 53.9218C56.0694 53.9218 56.1549 53.857 56.1549 53.7922C56.1549 53.7145 56.2405 53.6626 56.3505 53.6626C56.485 53.6626 56.5339 53.5848 56.485 53.4034C56.4239 53.1312 56.485 53.0275 57.1084 52.4313C57.4507 52.1073 57.5362 52.0814 57.634 52.2369C57.7318 52.3924 57.744 52.3665 57.6829 52.1332C57.634 51.9647 57.6585 51.8481 57.7318 51.8481C57.8051 51.8481 57.8663 51.8999 57.8663 51.9777C57.8663 52.1721 58.0741 52.1332 58.1474 51.9258C58.1963 51.7962 58.1596 51.7573 58.0374 51.8092C57.9518 51.8481 57.8663 51.8481 57.8663 51.8092C57.8663 51.7703 58.1352 51.1352 58.4774 50.4094C59.1375 48.9448 59.2109 48.4782 59.0397 46.8322C58.9542 46.0416 58.9053 45.899 58.6853 45.8342C58.5386 45.7953 58.343 45.8472 58.233 45.9508C57.8663 46.3008 57.8663 46.1582 58.233 45.0695C58.4163 44.4862 58.6486 43.6308 58.7219 43.1642C58.7953 42.6976 58.8808 42.244 58.9053 42.1533C59.0031 41.8552 59.2964 41.9977 59.6143 42.4773ZM42.6478 42.9309C42.6722 43.0994 42.7822 43.6956 42.8922 44.2659C42.99 44.8362 43.1489 45.5361 43.2467 45.8212C43.3445 46.1064 43.4301 46.4434 43.4423 46.56C43.4423 46.7674 43.4179 46.7674 43.0512 46.5341L42.66 46.2878L42.3911 46.5859C42.0121 46.9877 41.9266 48.5819 42.2444 49.7095C42.66 51.2389 42.8922 51.8481 43.0512 51.7833C43.1245 51.7573 43.1978 51.7962 43.1978 51.8999C43.1978 51.9906 43.3323 52.198 43.5034 52.3665C43.6746 52.535 43.809 52.7165 43.809 52.7813C43.809 53.1053 45.3492 54.2847 46.6449 54.9587C47.2072 55.2568 47.7573 55.542 47.8673 55.6197C48.1484 55.7752 48.454 55.7752 48.454 55.6068C48.454 55.529 48.3562 55.4771 48.2462 55.4771C48.124 55.4771 47.7206 55.2698 47.3539 55.0235C46.9872 54.7773 46.6205 54.5699 46.5471 54.5699C46.3638 54.5699 45.0069 53.4812 44.2857 52.7553C43.7846 52.2499 43.589 51.9647 43.3323 51.3685C43.2712 51.226 43.1489 51.0575 43.0878 51.0056C43.0145 50.9667 42.9534 50.8112 42.9534 50.6816C42.9534 50.552 42.8922 50.4224 42.8311 50.3964C42.7578 50.3705 42.66 49.8132 42.6233 49.1522C42.5622 48.1153 42.5744 47.9209 42.77 47.7006C42.8922 47.558 43.0634 47.4413 43.1367 47.4413C43.2223 47.4413 43.809 48.0246 44.4324 48.7245C45.0558 49.4373 45.6915 50.0854 45.8382 50.1761C45.9848 50.2539 46.1437 50.4353 46.1682 50.5649C46.2049 50.7075 46.3271 50.8112 46.4616 50.8112C46.5838 50.8112 46.8161 50.9278 46.9872 51.0704C47.1583 51.213 47.3661 51.3296 47.4517 51.3296C47.525 51.3296 47.5984 51.4333 47.5984 51.55C47.6106 51.6796 47.9162 52.0166 48.2951 52.3017C49.6642 53.3386 50.2509 54.5569 49.9331 55.7104C49.8597 55.9437 49.8475 56.2289 49.8842 56.3326C50.0798 56.8899 50.8988 56.0993 51.3266 54.9198C51.7055 53.8441 52.0356 53.3515 52.549 53.0923C52.9768 52.872 53.2457 52.5869 53.1968 52.4184C53.1601 52.2499 53.7836 51.5241 55.7027 49.5151C56.6194 48.5301 57.3773 47.6746 57.3773 47.6098C57.3773 47.545 57.5851 47.3247 57.8296 47.1432C58.4408 46.6767 58.5997 46.8451 58.5997 47.9339C58.5997 49.0874 58.1352 50.7205 57.6218 51.3815C57.1206 52.0166 55.9227 53.2738 55.8127 53.2738C55.6293 53.2738 54.7492 54.0644 54.7859 54.207C54.7981 54.2718 54.6148 54.4143 54.3825 54.518C53.9302 54.7125 53.7958 54.9587 54.1747 54.8939C54.2847 54.8809 54.3092 54.8939 54.2358 54.9198C54.1503 54.9587 54.0769 55.0365 54.0769 55.1013C54.0769 55.179 53.9791 55.2179 53.8569 55.192C53.7224 55.1661 53.4902 55.2179 53.3313 55.3087C53.1724 55.3864 52.9401 55.4901 52.8301 55.529C52.7079 55.5679 52.6468 55.6716 52.6834 55.7752C52.7201 55.8919 52.5979 56.0993 52.3901 56.2678C52.1945 56.4363 51.8644 56.851 51.6444 57.188C51.2166 57.862 50.9354 57.9527 50.6054 57.5639C50.4832 57.4213 50.2142 57.2398 50.0064 57.1491C49.7864 57.0584 49.5664 56.9158 49.493 56.8251C49.4319 56.7473 49.1508 56.6307 48.8819 56.5788C47.4761 56.3196 45.2392 55.192 44.1513 54.1811C42.5989 52.7683 41.8288 51.5629 41.242 49.7095C40.7775 48.219 40.8753 45.3287 41.4254 44.0715C42.0244 42.7106 42.5011 42.2699 42.6478 42.9309ZM38.3328 45.3935C38.235 45.4972 38.2228 45.4454 38.2717 45.225C38.3206 45.0565 38.3695 44.9917 38.4062 45.0954C38.4306 45.1861 38.3939 45.3287 38.3328 45.3935ZM65.8117 53.9218C65.6039 54.3366 65.5427 54.1551 65.7139 53.6497C65.8117 53.3645 65.8728 53.2867 65.9095 53.4293C65.9339 53.546 65.885 53.7793 65.8117 53.9218ZM65.4083 54.531C65.3594 54.5699 65.3227 54.531 65.3227 54.4403C65.3227 54.3495 65.3594 54.3107 65.4083 54.3495C65.445 54.4014 65.445 54.4792 65.4083 54.531ZM53.0624 55.8271C53.0135 55.866 52.9401 55.866 52.8912 55.8271C52.8546 55.7752 52.8912 55.7364 52.9768 55.7364C53.0624 55.7364 53.099 55.7752 53.0624 55.8271ZM55.0548 57.2917C55.0548 57.3565 54.9937 57.4213 54.9204 57.4213C54.8592 57.4213 54.8348 57.3565 54.8715 57.2917C54.9081 57.2139 54.9693 57.1621 55.0059 57.1621C55.0304 57.1621 55.0548 57.2139 55.0548 57.2917ZM54.5659 57.5509C54.2725 57.7453 54.1136 57.6935 54.3703 57.4861C54.5048 57.3824 54.6392 57.3306 54.6759 57.3694C54.7126 57.4083 54.6637 57.4861 54.5659 57.5509ZM47.4761 57.9397C47.4761 58.0045 47.3906 58.0693 47.2928 58.0693C47.195 58.0693 47.1094 58.0045 47.1094 57.9397C47.1094 57.862 47.195 57.8101 47.2928 57.8101C47.3906 57.8101 47.4761 57.862 47.4761 57.9397ZM48.454 58.1989C48.454 58.2638 48.344 58.3286 48.2218 58.3286C48.0873 58.3286 47.9406 58.2638 47.904 58.1989C47.8551 58.1212 47.9651 58.0693 48.1362 58.0693C48.3073 58.0693 48.454 58.1212 48.454 58.1989ZM49.9209 58.4452C49.9209 58.6267 49.6886 58.6785 49.2608 58.6007L48.8819 58.5359L49.2486 58.4452C49.7986 58.3156 49.9209 58.3156 49.9209 58.4452Z" fill="#D98000"/>
<path d="M38.675 55.853C38.675 55.9308 38.7362 56.0215 38.7973 56.0604C38.8706 56.0993 38.9195 56.0474 38.9195 55.9437C38.9195 55.8271 38.8706 55.7364 38.7973 55.7364C38.7362 55.7364 38.675 55.7882 38.675 55.853Z" fill="#D98000"/>
<path d="M39.0417 56.3715C39.0417 56.4363 39.1029 56.54 39.164 56.5789C39.2373 56.6177 39.2862 56.6048 39.2862 56.527C39.2862 56.4622 39.2373 56.3585 39.164 56.3196C39.1029 56.2808 39.0417 56.2937 39.0417 56.3715Z" fill="#D98000"/>
<path d="M48.2095 61.828C48.2095 61.8928 48.2584 61.9576 48.3195 61.9576C48.3928 61.9576 48.4784 61.8928 48.5151 61.828C48.5517 61.7503 48.5028 61.6984 48.4051 61.6984C48.295 61.6984 48.2095 61.7503 48.2095 61.828Z" fill="#D98000"/>
<path d="M56.4116 40.6498C56.4116 40.7924 56.4482 40.8312 56.4849 40.7276C56.5216 40.6368 56.5094 40.5202 56.4727 40.4813C56.436 40.4294 56.3994 40.5072 56.4116 40.6498Z" fill="#D98000"/>
<path d="M56.644 41.8681C56.644 42.0755 56.7052 42.257 56.7663 42.257C56.8396 42.257 56.8885 42.0755 56.8885 41.8681C56.8885 41.6478 56.8396 41.4793 56.7663 41.4793C56.7052 41.4793 56.644 41.6478 56.644 41.8681Z" fill="#D98000"/>
<path d="M56.7171 42.8532C56.6804 42.9698 56.6438 43.1902 56.6438 43.3586C56.6438 43.6827 56.4726 44.1363 55.947 45.2898C55.7881 45.6398 55.6903 45.9638 55.7392 46.0027C55.8492 46.1193 56.3993 45.3806 56.3993 45.1213C56.3993 44.9917 56.4726 44.6807 56.5704 44.4474C56.7171 44.0326 56.9249 42.6458 56.8393 42.6458C56.8149 42.6458 56.7538 42.7365 56.7171 42.8532Z" fill="#D98000"/>
<path d="M54.3213 43.4234C54.3213 43.5142 54.358 43.553 54.4069 43.5142C54.4435 43.4623 54.4435 43.3846 54.4069 43.3327C54.358 43.2938 54.3213 43.3327 54.3213 43.4234Z" fill="#D98000"/>
<path d="M54.0402 43.9808C53.9057 44.3566 53.9301 44.6677 54.0891 44.4992C54.1624 44.4214 54.1991 44.227 54.1746 44.0585C54.1379 43.7863 54.1257 43.7734 54.0402 43.9808Z" fill="#D98000"/>
<path d="M46.3149 46.2749C46.3516 46.3397 46.4127 46.4045 46.4493 46.4045C46.486 46.4045 46.4738 46.3397 46.4371 46.2749C46.4004 46.1971 46.3393 46.1453 46.3027 46.1453C46.266 46.1453 46.2782 46.1971 46.3149 46.2749Z" fill="#D98000"/>
<path d="M55.6047 46.2619C55.5681 46.3267 55.5925 46.4174 55.6659 46.4693C55.727 46.5082 55.7881 46.4563 55.7881 46.3526C55.7881 46.1193 55.7148 46.0804 55.6047 46.2619Z" fill="#D98000"/>
<path d="M52.5244 47.9209C52.5733 47.9598 52.6467 47.9598 52.6955 47.9209C52.7322 47.8691 52.6955 47.8302 52.61 47.8302C52.5244 47.8302 52.4877 47.8691 52.5244 47.9209Z" fill="#D98000"/>
<path d="M58.5996 50.876C58.514 50.9927 58.4651 51.1093 58.5018 51.1352C58.5385 51.1741 58.6363 51.1223 58.7218 51.0056C58.8074 50.889 58.8563 50.7723 58.8196 50.7464C58.783 50.7075 58.6852 50.7594 58.5996 50.876Z" fill="#D98000"/>
<path d="M57.2917 52.5869C57.3406 52.6257 57.414 52.6257 57.4629 52.5869C57.4996 52.535 57.4629 52.4961 57.3773 52.4961C57.2917 52.4961 57.2551 52.535 57.2917 52.5869Z" fill="#D98000"/>
<path d="M64.3938 56.7992C64.3449 56.8899 64.3572 56.9029 64.4427 56.851C64.5283 56.7992 64.5894 56.7344 64.5894 56.6955C64.5894 56.5918 64.4794 56.6436 64.3938 56.7992Z" fill="#D98000"/>
<path d="M46.6727 0.0865097C45.3472 0.158646 42.5068 0.501297 41.028 0.762794C32.8945 2.22357 25.3832 5.51482 18.954 10.4472C15.257 13.2786 11.8124 16.7772 9.23354 20.3029C4.24707 27.1289 1.21731 34.6311 0.135257 42.8187C0.0270514 43.6393 0 44.9377 0 49.1217C0 52.0162 0.0360685 54.6402 0.0901713 54.9377C0.135257 55.2443 0.234445 55.9567 0.3156 56.5247C0.613165 58.5897 1.40667 61.917 2.08296 63.9549C3.93147 69.5274 6.77187 74.7754 10.3156 79.2028C12.4436 81.8539 14.229 83.6843 17.2768 86.3354C17.881 86.8584 20.541 88.8692 21.2804 89.3561C26.6096 92.8998 31.9567 95.2443 38.1425 96.7411C40.1623 97.2371 42.3535 97.5797 45.6267 97.9314C47.2678 98.1027 52.7322 98.0757 54.5536 97.8863C58.2958 97.4806 60.3426 97.1108 63.3814 96.2813C75.7529 92.8818 86.4743 84.8656 92.9486 74.1532C97.6105 66.4436 100 57.9134 100 49.0045C100 38.6618 96.6546 28.6167 90.4148 20.1857C88.0162 16.9576 84.0126 12.8457 81.3526 10.88C81.073 10.6726 80.5951 10.3029 80.2976 10.0595C79.5942 9.5004 76.6005 7.50761 75.789 7.06577C75.4463 6.87641 74.9955 6.61491 74.7971 6.49769C74.1839 6.10995 70.9829 4.54097 69.7114 3.99995C68.2056 3.35973 65.3562 2.36784 63.6519 1.89895C58.0974 0.348007 52.633 -0.238106 46.6727 0.0865097ZM31.1993 5.84846C31.1993 5.90256 31.1091 5.97469 31.0009 6.01978C30.8837 6.06487 30.6402 6.20914 30.4509 6.33538C30.2615 6.46162 30.0992 6.56982 30.0812 6.56982C29.9639 6.56982 27.8449 7.84124 26.6907 8.59868C19.1163 13.5671 13.0839 19.6807 8.6835 26.8584C7.92606 28.1027 6.41118 31.0243 5.48242 33.0351C4.80613 34.5139 5.18485 32.7195 6.02344 30.5103C7.79982 25.8304 9.82867 22.2506 13.0839 18.1118C14.4454 16.3715 16.844 13.9909 18.8458 12.3859C22.1821 9.72582 25.789 7.70599 30.4328 5.90256C30.8566 5.74025 31.1993 5.72221 31.1993 5.84846ZM32.5518 8.95937C32.4887 9.0315 32.2092 9.22086 31.9297 9.38317C25.9152 12.7826 20.6943 17.1109 16.3931 22.2687C13.4716 25.7673 10.9919 29.7619 9.4229 33.486C9.23354 33.9278 8.9991 34.3787 8.90893 34.4779C8.72858 34.6582 8.72858 34.6582 8.7917 34.2524C8.91794 33.477 9.90081 30.7718 10.6402 29.1577C11.2353 27.8593 11.7854 26.7321 12.083 26.2272C12.2723 25.9026 12.5068 25.4968 12.606 25.3255C15.5816 20.0955 19.9549 15.4968 24.9053 12.431C26.844 11.2136 29.3327 9.98732 31.56 9.13069C32.4256 8.79706 32.7322 8.74296 32.5518 8.95937ZM34.4454 12.0883C34.4454 12.1514 34.2561 12.2867 34.0126 12.3769C32.128 13.1343 30.7214 13.8917 28.6294 15.2804C24.8693 17.7781 21.2804 21.2858 18.0613 25.596C16.2489 28.0216 14.4004 31.0694 12.8855 34.1172C12.2904 35.3074 11.7583 36.3173 11.7042 36.3714C11.5509 36.5157 11.6952 35.623 11.9477 34.8656C13.5077 30.1045 15.5906 26.0108 18.1154 22.7105C22.0739 17.5437 26.9071 14.1352 32.8224 12.3318C34.0126 11.9711 34.4454 11.908 34.4454 12.0883ZM34.9414 15.5419C34.7971 15.6591 34.6438 15.7583 34.6078 15.7673C34.5807 15.7673 34.193 15.9747 33.7511 16.2272C33.3183 16.4797 32.8133 16.7682 32.642 16.8674C31.6592 17.4174 29.3688 19.0135 28.1425 19.9873C23.9405 23.3237 20.2615 27.6429 17.7006 32.2236C17.0243 33.4409 15.9964 35.632 15.6808 36.5338C15.6177 36.7231 15.4824 36.9395 15.3832 37.0297C15.2209 37.183 15.2119 37.174 15.275 36.7321C15.5005 35.1361 16.4563 32.2957 17.5924 29.843C18.9811 26.8764 21.8215 23.2155 24.3823 21.1145C24.6709 20.88 25.1217 20.5013 25.3742 20.2939C25.78 19.9422 26.6997 19.3201 28.3499 18.247C29.9279 17.2281 34.1839 15.3525 34.9865 15.3255L35.2119 15.3164L34.9414 15.5419ZM37.2408 18.0937C37.2408 18.238 36.9342 18.4364 36.1587 18.788C33.9134 19.816 30.6853 21.9891 28.5843 23.8737C24.0307 27.9585 20.9107 32.5933 19.0352 38.0577C18.8368 38.6438 18.6204 39.2118 18.5663 39.32L18.4581 39.5274L18.3859 39.275C18.3048 38.9864 18.5482 37.4896 18.9089 36.0558C19.7475 32.6654 21.5149 29.1938 23.7241 26.6239C26.9522 22.8548 30.8386 20.2849 36.4292 18.22C36.9702 18.0216 37.2408 17.9765 37.2408 18.0937ZM37.872 21.5743C37.872 21.6375 36.9071 22.2326 36.2489 22.5752C34.4635 23.495 31.8936 25.4066 29.9369 27.2641C26.7989 30.2488 24.3192 33.8466 22.7322 37.724C22.4256 38.4634 22.119 39.1307 22.0469 39.2028C21.5059 39.7439 22.5609 35.9026 23.5798 33.5761C25.5546 29.1217 28.5212 25.8214 32.633 23.5311C33.5618 23.0081 35.4193 22.2146 36.5194 21.8539C36.7899 21.7637 37.0965 21.6645 37.1957 21.6194C37.376 21.5473 37.872 21.5112 37.872 21.5743ZM39.8106 24.4237C39.8106 24.4959 39.5762 24.7123 39.2967 24.9017C38.8097 25.2263 36.6546 26.3444 35.798 26.7231C34.211 27.4174 31.9748 29.5094 30.1533 31.9981C29.5672 32.8007 28.3228 34.7574 27.6826 35.8755C27.2768 36.6059 25.9693 39.2209 25.5726 40.1316C25.3832 40.5734 25.1849 40.9251 25.1488 40.9251C24.9324 40.9251 25.1758 39.1307 25.5996 37.6338C26.5645 34.2164 28.7015 31.0243 31.6592 28.6077C32.8404 27.6429 33.2281 27.3633 34.5356 26.5879C35.7439 25.8755 37.1776 25.1812 38.413 24.7033C38.8368 24.541 39.2606 24.3696 39.3598 24.3336C39.6123 24.2254 39.8106 24.2614 39.8106 24.4237ZM40.6492 27.7691C40.6312 27.8232 40.2074 28.0937 39.7205 28.3642C37.7277 29.4643 35.9603 30.7808 34.3463 32.3678C31.4968 35.1632 29.7565 38.0937 28.7647 41.7186C28.6294 42.2326 28.4851 42.6744 28.4491 42.7105C28.1876 42.981 28.1876 41.0243 28.4581 39.6807C28.8278 37.8683 29.3327 36.4256 30.0361 35.1992C31.9387 31.8719 34.7971 29.6627 39.3147 28.0216C40.2795 27.6699 40.7124 27.5888 40.6492 27.7691ZM41.7493 30.9792C41.7493 31.0243 41.3526 31.2768 40.8656 31.5473C39.8106 32.1334 39.0171 32.6654 38.2326 33.3056C37.394 33.9999 35.7349 35.7132 35.1037 36.5518C34.5627 37.2732 33.6249 38.788 33.3454 39.3922C32.9847 40.1677 32.3715 41.7547 32.1551 42.476C31.9026 43.2876 31.7223 43.5761 31.6141 43.3056C31.5149 43.0531 31.56 41.917 31.7042 40.9341C32.3264 36.687 35.284 33.4138 40.4418 31.2678C41.2083 30.9521 41.7493 30.8349 41.7493 30.9792ZM51.7583 31.908C55.5816 32.458 58.7196 34.054 61.3706 36.7862C63.4536 38.9413 64.7971 41.412 65.4644 44.3065C66.2669 47.8322 65.8251 51.5383 64.229 54.7664C62.0379 59.1577 58.0793 62.2867 53.2462 63.4228C50.8025 63.9909 48.4941 64.027 46.0775 63.522C44.3372 63.1523 42.3445 62.3949 40.9829 61.5743C37.5924 59.5274 35.0766 56.4436 33.8233 52.8007C33.174 50.9071 32.8945 48.5806 33.0839 46.5428C33.2462 44.7393 33.4265 43.9098 33.9675 42.4129C35.2029 39.0315 37.6105 36.1009 40.6673 34.2254C43.0027 32.8097 44.8693 32.1785 47.9261 31.7907C48.7286 31.6825 50.6402 31.7457 51.7583 31.908ZM67.0965 55.7673C66.6456 57.7511 65.5636 60.2308 64.5086 61.6735C64.2741 61.9891 63.7511 62.5933 63.3544 62.999C61.7583 64.6492 59.991 65.623 57.7006 66.128C56.0595 66.4887 55.3021 66.3895 56.33 65.9386C57.6105 65.3705 58.9089 64.6852 59.8106 64.0901C62.8674 62.0522 65.266 59.1848 66.5825 55.9837C67.0153 54.9467 67.0965 54.7844 67.1867 54.8746C67.2408 54.9287 67.2047 55.2623 67.0965 55.7673ZM70.6673 55.6591C70.6402 55.7222 70.5951 55.9747 70.5591 56.2182C70.3787 57.5256 69.6573 59.7619 68.8638 61.5112C68.404 62.5031 67.5113 63.8196 66.6005 64.8385C64.8512 66.7953 62.5969 68.2019 59.9008 69.0044C58.7827 69.3381 57.2858 69.6266 57.1235 69.5274C56.9161 69.4192 57.0784 69.302 57.9982 68.9323C61.1362 67.6699 63.8864 65.6501 66.1316 62.972C67.9441 60.8169 69.1614 58.7159 70.3427 55.7312C70.3877 55.623 70.4869 55.5329 70.5681 55.5329C70.6582 55.5329 70.6943 55.587 70.6673 55.6591ZM74.211 56.0468C74.211 56.6059 73.4716 59.0135 72.7953 60.6726C70.5951 66.1009 66.6005 70.0414 61.4968 71.8358C58.927 72.7375 58.5032 72.6744 60.2525 71.6465C62.2362 70.4833 64.6077 68.8331 66.2308 67.4986C67.2047 66.7051 69.1073 64.8566 69.7655 64.0901C71.073 62.5392 71.9297 61.0784 72.4256 59.5184C73.1019 57.3994 73.7692 55.8935 74.0397 55.8935C74.1389 55.8935 74.211 55.9567 74.211 56.0468ZM77.2227 57.9224C77.1957 58.0667 77.1416 58.3552 77.0965 58.5536C77.0514 58.752 76.9522 59.2209 76.8711 59.5906C76.4923 61.2677 76.0234 62.5662 75.1488 64.3155C73.3003 68.0216 70.4689 70.853 66.1407 73.3056C65.3922 73.7294 63.0027 74.7934 62.2633 75.0279C61.7133 75.2082 61.4067 75.2623 61.3616 75.1902C61.2985 75.082 61.4608 74.9738 62.7953 74.2434C64.0126 73.5761 64.4184 73.3237 65.6898 72.431C67.5113 71.1686 70.1623 68.6889 71.6952 66.8494C72.5338 65.8304 73.8503 63.9549 74.5086 62.8367C75.1488 61.7366 76.1948 59.6357 76.5014 58.8241C76.9252 57.715 77.1055 57.3814 77.1867 57.5166C77.2317 57.5888 77.2408 57.7691 77.2227 57.9224ZM80.8837 57.688C80.8837 57.8503 80.4328 59.7619 80.2164 60.4923C78.5302 66.2903 75.3562 71.1145 71.1001 74.3336C68.972 75.9386 66.1948 77.4084 63.9766 78.1027C62.8765 78.4454 61.9116 78.7069 61.7403 78.7069C61.56 78.7069 61.56 78.6979 61.7674 78.4815C61.8846 78.3552 62.0198 78.256 62.0649 78.256C62.2633 78.256 64.4995 77.1199 65.6267 76.4436C66.7178 75.7853 67.3129 75.3886 69.0983 74.0811C69.7836 73.5852 71.3977 72.1244 72.4797 71.0423C76.0505 67.4535 78.9811 62.6203 80.5681 57.715C80.6132 57.5888 80.8837 57.5617 80.8837 57.688ZM83.8142 59.8791C83.5798 61.7006 82.3354 65.2353 81.0911 67.6158C77.7908 73.9729 72.4076 78.5987 65.3021 81.1956C64.8332 81.3669 64.4184 81.4842 64.3733 81.4481C64.2471 81.376 64.5717 81.1415 65.6447 80.5554C69.7295 78.2921 73.9675 74.6762 77.1325 70.7448C79.495 67.8142 81.6141 64.3065 82.8945 61.2136C83.4716 59.825 83.679 59.4102 83.7782 59.4102C83.8413 59.4102 83.8593 59.5635 83.8142 59.8791ZM87.3309 60.1496C87.2768 60.7448 87.1957 61.1505 86.835 62.8367C85.9874 66.7682 83.5888 71.3399 80.6582 74.6041C80.2525 75.0459 79.8106 75.5509 79.6573 75.7222C79.3959 76.0288 77.6555 77.6248 76.853 78.3101C75.78 79.2299 72.2182 81.7727 72.0198 81.7727C71.9838 81.7727 71.587 81.9981 71.1271 82.2777C70.6673 82.5572 69.3959 83.2154 68.3048 83.7475C66.4202 84.6672 65.6087 85.0099 65.5095 84.9197C65.4554 84.8566 66.1948 84.3155 67.0243 83.8106C68.4941 82.9269 71.2083 80.9882 72.9035 79.6176C79.8106 74.027 85.0316 66.8494 86.835 60.4472C86.9432 60.0504 87.0514 59.6717 87.0694 59.6086C87.0875 59.5545 87.1686 59.5004 87.2498 59.5004C87.376 59.5004 87.385 59.5815 87.3309 60.1496ZM90.8025 61.0423C90.8025 61.3309 90.2435 63.3417 89.7746 64.7303C88.8819 67.3904 88.0162 69.284 86.5735 71.6916C85.0045 74.3155 83.2462 76.5157 80.8296 78.8962C78.927 80.7538 77.5473 81.8899 75.4644 83.3146C73.0117 85.0008 68.5753 87.3633 67.8629 87.3633C67.7187 87.3633 67.7187 87.3453 67.908 87.201C68.0252 87.1109 68.5933 86.7592 69.1614 86.4165C72.9486 84.1803 75.9784 81.7547 79.3959 78.247C81.4878 76.0919 83.4085 73.6753 85.3381 70.7718C87.2949 67.8412 88.6114 65.4517 89.8197 62.6654C90.523 61.0333 90.6132 60.853 90.7123 60.853C90.7574 60.853 90.8025 60.9341 90.8025 61.0423ZM94.0938 62.1334C93.9134 63.2876 92.7863 66.9666 92.0649 68.743C90.8386 71.7637 88.6655 75.4517 86.6186 77.9855C82.3715 83.2425 76.9793 87.3814 70.4869 90.3751C69.8197 90.6816 69.2696 90.7989 69.3778 90.6185C69.4049 90.5734 69.7655 90.339 70.1803 90.1045C72.7502 88.6167 75.3742 86.7682 77.7277 84.7574C79.2155 83.495 82.0289 80.6907 83.3904 79.1307C87.3129 74.5951 90.9738 68.7971 93.0478 63.8286C93.7872 62.0613 93.9405 61.7637 94.1208 61.7547C94.1389 61.7547 94.1298 61.926 94.0938 62.1334Z" fill="#D98000"/>
</svg>
