<svg xmlns="http://www.w3.org/2000/svg" width="66" height="75" viewBox="0 0 66 75" fill="none">
<g clip-path="url(#clip0_15_36)">
<path d="M65.625 30.7485C59.176 30.764 52.8851 28.7528 47.6411 24.999V51.1787C47.6394 56.0275 46.1573 60.7601 43.3932 64.7439C40.6291 68.7276 36.7146 71.7725 32.1732 73.4715C27.6319 75.1704 22.68 75.4424 17.9799 74.2511C13.2798 73.0598 9.05534 70.462 5.8715 66.805C2.68766 63.148 0.696158 58.6061 0.163289 53.7867C-0.369579 48.9674 0.581586 44.1001 2.8896 39.8359C5.19761 35.5717 8.75246 32.1137 13.0788 29.9244C17.4052 27.735 22.2968 26.9187 27.0996 27.5845V40.752C24.9018 40.0606 22.5418 40.0815 20.3566 40.8115C18.1713 41.5414 16.2726 42.9432 14.9316 44.8167C13.5906 46.6901 12.8758 48.9394 12.8894 51.2433C12.9029 53.5472 13.6441 55.788 15.0072 57.6455C16.3702 59.503 18.2852 60.8824 20.4789 61.5865C22.6726 62.2907 25.0327 62.2838 27.2222 61.5666C29.4117 60.8495 31.3186 59.4588 32.6706 57.5933C34.0226 55.7277 34.7506 53.4827 34.7505 51.1787V0H47.6411C47.6322 1.08858 47.7234 2.17568 47.9136 3.24756C48.3615 5.64035 49.2929 7.91661 50.6507 9.93711C52.0086 11.9576 53.7643 13.6799 55.8106 14.9985C58.7218 16.9235 62.1349 17.9495 65.625 17.9487V30.7485Z" fill="white"/>
</g>
<defs>
<clipPath id="clip0_15_36">
<rect width="65.625" height="75" fill="white"/>
</clipPath>
</defs>
</svg>