<svg xmlns="http://www.w3.org/2000/svg" width="357" height="350" viewBox="0 0 357 350" fill="none">
<path d="M166.611 0.308702C161.879 0.566215 151.74 1.7894 146.46 2.72288C117.426 7.93752 90.6124 19.6865 67.6615 37.294C54.464 47.4014 42.1677 59.8907 32.9617 72.4767C15.1611 96.8438 4.34553 123.625 0.482837 152.853C0.0965673 155.782 0 160.417 0 175.353C0 185.686 0.128756 195.053 0.321891 196.115C0.482837 197.21 0.836917 199.752 1.12662 201.78C2.18886 209.152 5.0215 221.029 7.43569 228.304C14.0345 248.197 24.174 266.931 36.8244 282.736C44.421 292.2 50.7944 298.734 61.6744 308.198C63.831 310.065 73.3268 317.243 75.9663 318.981C94.9901 331.631 114.078 340 136.16 345.344C143.37 347.114 151.192 348.337 162.877 349.593C168.735 350.204 188.242 350.108 194.744 349.432C208.103 347.983 215.41 346.664 226.257 343.702C270.421 331.567 308.694 302.951 331.805 264.71C348.447 237.188 356.977 206.738 356.977 174.935C356.977 138.014 345.035 102.155 322.76 72.0582C314.198 60.5345 299.906 45.8563 290.41 38.8391C289.412 38.0987 287.706 36.779 286.644 35.9099C284.133 33.9141 273.447 26.8003 270.55 25.2231C269.326 24.5471 267.717 23.6136 267.009 23.1952C264.82 21.811 253.393 16.2101 248.854 14.2788C243.478 11.9933 233.307 8.45255 227.223 6.77871C207.394 1.24218 187.888 -0.850106 166.611 0.308702ZM111.374 20.8775C111.374 21.0707 111.052 21.3282 110.666 21.4891C110.248 21.6501 109.379 22.1651 108.703 22.6158C108.027 23.0664 107.447 23.4527 107.383 23.4527C106.964 23.4527 99.4 27.9913 95.2798 30.6952C68.2409 48.4314 46.7064 70.2557 30.9981 95.8782C28.2942 100.32 22.8865 110.75 19.571 117.928C17.1568 123.207 18.5087 116.801 21.5023 108.915C27.8436 92.2086 35.0861 79.4295 46.7064 64.6547C51.567 58.4422 60.1293 49.9443 67.2753 44.2147C79.1852 34.7189 92.0609 27.5085 108.638 21.0707C110.151 20.4913 111.374 20.4269 111.374 20.8775ZM116.203 31.9828C115.977 32.2403 114.98 32.9163 113.982 33.4957C92.5115 45.631 73.874 61.0818 58.5198 79.4939C48.0905 91.9833 39.2385 106.243 33.6376 119.537C32.9617 121.114 32.1247 122.724 31.8028 123.078C31.1591 123.722 31.1591 123.722 31.3844 122.273C31.835 119.505 35.3437 109.848 37.9832 104.086C40.1076 99.4512 42.0712 95.4275 43.1334 93.6249C43.8094 92.4661 44.6463 91.0176 45.0004 90.406C55.6228 71.7364 71.2345 55.3199 88.9063 44.3756C95.827 40.0301 104.711 35.6523 112.662 32.5944C115.752 31.4034 116.846 31.2103 116.203 31.9828ZM122.962 43.1524C122.962 43.3777 122.286 43.8606 121.417 44.1825C114.69 46.8864 109.668 49.5902 102.2 54.5474C88.7776 63.4637 75.9663 75.9853 64.4748 91.3717C58.0048 100.031 51.406 110.91 45.9982 121.79C43.8738 126.039 41.9746 129.645 41.7815 129.838C41.2343 130.353 41.7493 127.166 42.6506 124.462C48.2193 107.466 55.655 92.8524 64.6679 81.0712C78.799 62.6268 96.0523 50.4593 117.168 44.0215C121.417 42.734 122.962 42.5086 122.962 43.1524ZM124.733 55.4808C124.218 55.8993 123.671 56.2534 123.542 56.2856C123.445 56.2856 122.061 57.0259 120.484 57.9272C118.939 58.8285 117.136 59.8586 116.525 60.2126C113.016 62.1762 104.84 67.8736 100.462 71.3501C85.4621 83.26 72.3289 98.6787 63.1872 115.031C60.7731 119.376 57.1035 127.198 55.9769 130.417C55.7516 131.093 55.2687 131.866 54.9146 132.188C54.3352 132.735 54.303 132.703 54.5284 131.125C55.3331 125.428 58.7451 115.288 62.801 106.533C67.7581 95.9426 77.8977 82.8738 87.0394 75.3737C88.0694 74.5368 89.6789 73.1849 90.5802 72.4445C92.0287 71.1891 95.312 68.9681 101.203 65.1376C106.836 61.5002 122.029 54.8049 124.894 54.7083L125.698 54.6761L124.733 55.4808ZM132.941 64.5904C132.941 65.1054 131.847 65.8135 129.078 67.0689C121.063 70.7385 109.54 78.4961 102.04 85.2236C85.784 99.8053 74.6466 116.35 67.9512 135.857C67.2431 137.949 66.4705 139.977 66.2774 140.364L65.8911 141.104L65.6336 140.203C65.3439 139.173 66.213 133.829 67.5006 128.711C70.4942 116.608 76.8032 104.215 84.6896 95.0413C96.2133 81.5862 110.087 72.4123 130.044 65.041C131.975 64.3328 132.941 64.1719 132.941 64.5904ZM135.194 77.0154C135.194 77.2407 131.75 79.3652 129.4 80.5883C123.027 83.8716 113.853 90.6957 106.868 97.3267C95.6661 107.981 86.8141 120.825 81.1488 134.666C80.0543 137.306 78.9599 139.688 78.7024 139.945C76.771 141.876 80.5372 128.164 84.1745 119.859C91.224 103.958 101.814 92.1764 116.492 84.0004C119.808 82.1334 126.439 79.3008 130.366 78.0132C131.332 77.6913 132.426 77.3373 132.78 77.1763C133.424 76.9188 135.194 76.79 135.194 77.0154ZM142.115 87.1871C142.115 87.4446 141.278 88.2172 140.28 88.8932C138.542 90.052 130.849 94.0434 127.791 95.3954C122.126 97.8739 114.143 105.342 107.64 114.226C105.548 117.091 101.106 124.076 98.8206 128.067C97.3721 130.675 92.7047 140.009 91.2883 143.261C90.6124 144.838 89.9042 146.093 89.7754 146.093C89.0029 146.093 89.872 139.688 91.3849 134.344C94.8291 122.144 102.458 110.75 113.016 102.123C117.233 98.6786 118.617 97.6808 123.284 94.9125C127.598 92.3696 132.716 89.891 137.126 88.185C138.639 87.6056 140.151 86.994 140.505 86.8652C141.407 86.479 142.115 86.6077 142.115 87.1871ZM145.109 99.1293C145.044 99.3224 143.531 100.288 141.793 101.254C134.679 105.181 128.37 109.88 122.608 115.546C112.437 125.524 106.224 135.986 102.683 148.926C102.2 150.761 101.685 152.338 101.557 152.467C100.623 153.432 100.623 146.447 101.589 141.651C102.909 135.181 104.711 130.031 107.222 125.653C114.014 113.775 124.218 105.889 140.345 100.031C143.789 98.7752 145.334 98.4855 145.109 99.1293ZM149.036 110.589C149.036 110.75 147.619 111.651 145.881 112.617C142.115 114.709 139.282 116.608 136.482 118.893C133.488 121.372 127.565 127.488 125.312 130.481C123.381 133.057 120.033 138.464 119.035 140.621C117.748 143.389 115.559 149.055 114.786 151.63C113.885 154.527 113.241 155.557 112.855 154.591C112.501 153.69 112.662 149.634 113.177 146.125C115.398 130.964 125.956 119.28 144.368 111.619C147.104 110.492 149.036 110.074 149.036 110.589ZM184.766 113.904C198.414 115.868 209.616 121.565 219.079 131.318C226.515 139.012 231.311 147.831 233.693 158.164C236.558 170.75 234.981 183.98 229.283 195.504C221.461 211.18 207.33 222.349 190.077 226.405C181.353 228.433 173.113 228.562 164.486 226.759C158.274 225.439 151.16 222.736 146.3 219.806C134.196 212.499 125.216 201.491 120.741 188.486C118.424 181.727 117.426 173.422 118.102 166.147C118.681 159.709 119.325 156.748 121.256 151.404C125.666 139.333 134.261 128.872 145.173 122.177C153.51 117.123 160.173 114.87 171.085 113.486C173.95 113.099 180.774 113.325 184.766 113.904ZM239.519 199.077C237.91 206.158 234.047 215.01 230.281 220.16C229.444 221.287 227.577 223.444 226.161 224.892C220.463 230.783 214.154 234.259 205.978 236.062C200.12 237.349 197.416 236.995 201.085 235.386C205.656 233.358 210.291 230.912 213.51 228.787C224.423 221.512 232.985 211.276 237.684 199.849C239.23 196.147 239.519 195.568 239.841 195.89C240.034 196.083 239.905 197.274 239.519 199.077ZM252.266 198.69C252.17 198.916 252.009 199.817 251.88 200.686C251.236 205.353 248.661 213.336 245.828 219.581C244.187 223.122 241 227.821 237.749 231.459C231.504 238.444 223.457 243.465 213.832 246.33C209.841 247.521 204.497 248.551 203.918 248.197C203.178 247.811 203.757 247.392 207.04 246.073C218.242 241.566 228.06 234.356 236.075 224.796C242.545 217.102 246.891 209.602 251.107 198.948C251.268 198.561 251.622 198.24 251.912 198.24C252.234 198.24 252.363 198.433 252.266 198.69ZM264.916 200.074C264.916 202.07 262.277 210.665 259.863 216.587C252.009 235.965 237.749 250.032 219.53 256.438C210.356 259.656 208.843 259.431 215.088 255.762C222.169 251.609 230.635 245.719 236.429 240.955C239.905 238.122 246.697 231.523 249.047 228.787C253.715 223.251 256.773 218.036 258.543 212.467C260.957 204.903 263.339 199.527 264.305 199.527C264.659 199.527 264.916 199.752 264.916 200.074ZM275.668 206.77C275.571 207.285 275.378 208.315 275.217 209.023C275.056 209.731 274.702 211.405 274.412 212.725C273.06 218.712 271.386 223.347 268.264 229.592C261.665 242.822 251.558 252.929 236.107 261.684C233.435 263.197 224.905 266.996 222.266 267.832C220.302 268.476 219.208 268.669 219.047 268.412C218.822 268.026 219.401 267.639 224.165 265.032C228.511 262.65 229.959 261.749 234.498 258.562C241 254.056 250.464 245.204 255.936 238.637C258.929 235 263.629 228.304 265.979 224.313C268.264 220.386 271.998 212.886 273.092 209.989C274.605 206.029 275.249 204.838 275.539 205.321C275.7 205.579 275.732 206.222 275.668 206.77ZM288.736 205.933C288.736 206.512 287.127 213.336 286.354 215.944C280.335 236.641 269.004 253.862 253.811 265.354C246.215 271.084 236.3 276.33 228.382 278.809C224.455 280.032 221.01 280.966 220.399 280.966C219.755 280.966 219.755 280.933 220.495 280.161C220.914 279.71 221.397 279.356 221.558 279.356C222.266 279.356 230.249 275.3 234.272 272.886C238.167 270.536 240.292 269.12 246.665 264.453C249.112 262.682 254.873 257.468 258.736 253.605C271.483 240.794 281.944 223.54 287.61 206.029C287.771 205.579 288.736 205.482 288.736 205.933ZM299.198 213.755C298.361 220.257 293.919 232.875 289.477 241.373C277.696 264.066 258.479 280.579 233.114 289.85C231.44 290.461 229.959 290.88 229.798 290.751C229.347 290.494 230.506 289.657 234.337 287.564C248.918 279.485 264.047 266.577 275.346 252.543C283.779 242.081 291.344 229.56 295.915 218.519C297.975 213.562 298.715 212.081 299.069 212.081C299.294 212.081 299.359 212.628 299.198 213.755ZM311.752 214.72C311.558 216.845 311.269 218.293 309.981 224.313C306.955 238.347 298.393 254.667 287.932 266.32C286.483 267.897 284.906 269.699 284.359 270.311C283.425 271.405 277.213 277.103 274.348 279.549C270.517 282.833 257.803 291.91 257.094 291.91C256.966 291.91 255.549 292.715 253.908 293.713C252.266 294.71 247.727 297.06 243.833 298.959C237.105 302.243 234.208 303.466 233.854 303.144C233.661 302.919 236.3 300.987 239.262 299.185C244.509 296.03 254.197 289.109 260.249 284.217C284.906 264.259 303.543 238.637 309.981 215.783C310.367 214.366 310.754 213.014 310.818 212.789C310.882 212.596 311.172 212.403 311.462 212.403C311.913 212.403 311.945 212.693 311.752 214.72ZM324.144 217.907C324.144 218.937 322.149 226.115 320.475 231.072C317.288 240.568 314.198 247.328 309.048 255.922C303.447 265.29 297.17 273.144 288.543 281.642C281.751 288.273 276.826 292.328 269.391 297.414C260.635 303.434 244.798 311.867 242.255 311.867C241.74 311.867 241.74 311.803 242.416 311.288C242.835 310.966 244.863 309.711 246.891 308.487C260.41 300.504 271.225 291.846 283.425 279.324C290.893 271.631 297.749 263.004 304.638 252.639C311.623 242.178 316.322 233.648 320.636 223.701C323.147 217.875 323.468 217.231 323.823 217.231C323.983 217.231 324.144 217.521 324.144 217.907ZM335.893 221.802C335.25 225.922 331.226 239.055 328.651 245.397C324.273 256.18 316.516 269.345 309.209 278.39C294.048 297.157 274.798 311.932 251.622 322.618C249.24 323.713 247.277 324.131 247.663 323.487C247.76 323.327 249.047 322.49 250.528 321.653C259.702 316.341 269.069 309.743 277.47 302.565C282.781 298.058 292.824 288.047 297.685 282.479C311.687 266.287 324.756 245.59 332.16 227.854C334.799 221.545 335.346 220.482 335.99 220.45C336.054 220.45 336.022 221.062 335.893 221.802Z" fill="black"/>
<path d="M154.312 120.885C118.167 137.69 110.647 184.892 139.999 209.605C145.336 214.053 155.282 219.49 162.317 221.714C173.233 225.174 176.872 225.421 186.575 222.949C204.041 218.254 216.413 208.369 224.175 193.047C231.938 177.231 232.666 163.639 226.116 149.552C213.502 121.38 180.996 108.282 154.312 120.885Z" fill="black"/>
</svg>